<svg width="2000" height="2000" viewBox="0 0 2000 2000" fill="none" xmlns="http://www.w3.org/2000/svg">
<circle cx="1000" cy="1000" r="1000" fill="#8CA738"/>
<path d="M954.44 636.641V589.943H1047.02V636.641H1181.37V702.18L1047.02 726.758L1114.19 1547.65L1089.62 1669.71L997.041 1823.73L896.274 1669.71L883.166 1547.65L954.44 726.758L821.722 702.18L767.652 715.288L725.051 659.58L821.722 636.641H954.44Z" fill="#47494A"/>
<circle cx="777.483" cy="666.953" r="52.4319" fill="#47494A"/>
<circle cx="1224.8" cy="666.953" r="52.4319" fill="#47494A"/>
<path fill-rule="evenodd" clip-rule="evenodd" d="M1521.81 1242.07C1446.53 1428.9 1241.11 1562.96 999.5 1562.96C757.89 1562.96 552.47 1428.9 477.19 1242.07C476.401 1252.81 476 1263.65 476 1274.58C476 1538.82 710.379 1753.02 999.5 1753.02C1288.62 1753.02 1523 1538.82 1523 1274.58C1523 1263.65 1522.6 1252.81 1521.81 1242.07Z" fill="#47494A"/>
<path fill-rule="evenodd" clip-rule="evenodd" d="M1001.96 596.498C1068.92 596.498 1123.21 542.213 1123.21 475.249C1123.21 408.285 1068.92 354 1001.96 354C934.996 354 880.711 408.285 880.711 475.249C880.711 542.213 934.996 596.498 1001.96 596.498ZM1001.14 547.343C1041.41 547.343 1074.05 514.698 1074.05 474.43C1074.05 434.161 1041.41 401.516 1001.14 401.516C960.872 401.516 928.227 434.161 928.227 474.43C928.227 514.698 960.872 547.343 1001.14 547.343Z" fill="#47494A"/>
</svg>
