<svg width="2000" height="2000" viewBox="0 0 2000 2000" fill="none" xmlns="http://www.w3.org/2000/svg">
<circle cx="1000" cy="1000" r="1000" fill="#E4E6FF"/>
<path d="M1046.84 521.758L1024.8 531.314L1034.15 632.35L1043.95 626.384C1073.48 608.426 1109.68 605.253 1141.88 617.8C1160.43 625.03 1180.59 627.134 1200.23 623.889L1233.88 618.333C1215.78 596.327 1212.38 565.707 1225.23 540.271L1233.88 523.138L1209.36 530.562C1184.23 538.171 1157.13 535.867 1133.65 524.124C1106.48 510.542 1074.7 509.676 1046.84 521.758Z" fill="black" stroke="black" stroke-width="4"/>
<path d="M778.771 929.882L791.537 910.889L1339.5 877.935L1328.64 896.813L778.771 929.882Z" fill="#846243" stroke="black" stroke-width="4"/>
<path d="M867.859 685.667L874.586 667.037L1182.23 648.536L1176.58 667.101L867.859 685.667Z" fill="#846243" stroke="black" stroke-width="4"/>
<rect x="1026.8" y="518.713" width="20.5288" height="870.861" fill="#846243" stroke="black" stroke-width="4"/>
<path d="M532.872 1277.56L1051.87 1381.55C1092.04 1389.6 1133.7 1385.12 1171.24 1368.72L1272.56 1324.45C1286.85 1318.21 1300.64 1310.85 1313.8 1302.46L1579.21 1133.15C1591.37 1125.39 1606.77 1124.78 1619.51 1131.56L1646.51 1145.92C1668.93 1157.85 1674.7 1187.38 1658.42 1206.88L1652.51 1213.96C1646.29 1221.41 1637.09 1225.71 1627.38 1225.71C1606.65 1225.71 1591.14 1206.68 1595.32 1186.37L1598.89 1169.06L1564.69 1234.67C1563.74 1236.48 1562.94 1238.37 1562.28 1240.31L1552.17 1270.1L1525.31 1371.72L1504.87 1473.05L1488.08 1556.25C1485.76 1567.75 1478.51 1577.65 1468.25 1583.33L1394.46 1624.2C1353.77 1646.74 1308.38 1659.5 1261.9 1661.49L965.333 1674.14C936.603 1675.37 907.847 1672.46 879.946 1665.5L695.651 1619.54C684.714 1616.81 675.436 1609.59 670.098 1599.67L638.765 1541.38L599.052 1467.5L566.931 1384.57L554.082 1315.07L525.313 1295.65C516.259 1289.54 522.161 1275.41 532.872 1277.56Z" fill="#754231"/>
<path d="M1598.89 1169.06L1595.32 1186.37C1591.14 1206.68 1606.65 1225.71 1627.38 1225.71V1225.71C1637.09 1225.71 1646.29 1221.41 1652.51 1213.96L1658.42 1206.88C1674.7 1187.38 1668.93 1157.85 1646.51 1145.92L1619.51 1131.56C1606.77 1124.78 1591.37 1125.39 1579.21 1133.15L1313.8 1302.46C1300.64 1310.85 1286.85 1318.21 1272.56 1324.45L1171.24 1368.72C1133.7 1385.12 1092.04 1389.6 1051.87 1381.55L532.872 1277.56C522.161 1275.41 516.259 1289.54 525.313 1295.65L554.082 1315.07M1598.89 1169.06L1564.69 1234.67C1563.74 1236.48 1562.94 1238.37 1562.28 1240.31L1552.17 1270.1M1598.89 1169.06L1332.58 1334.34L1258.41 1378.14L1187.62 1410.99C1149.36 1428.74 1106.47 1433.94 1065.08 1425.85L1000.27 1413.18L554.082 1315.07M1598.89 1169.06H1628.09L1623.42 1196.51M1552.17 1270.1L1337.46 1404.3C1327.99 1410.21 1318.05 1415.32 1307.74 1419.58L1199.25 1464.34C1170.93 1476.02 1140.31 1481.04 1109.74 1479.02L951.508 1468.52C941.205 1467.84 930.971 1466.36 920.898 1464.1L566.931 1384.57M1552.17 1270.1L1525.31 1371.72M566.931 1384.57L554.082 1315.07M566.931 1384.57L599.052 1467.5M599.052 1467.5L912.118 1530.98C928.001 1534.2 944.217 1535.48 960.408 1534.79L1113.57 1528.24L1301.65 1497.68C1329.36 1493.18 1355.81 1482.9 1379.28 1467.51L1525.31 1371.72M599.052 1467.5L638.765 1541.38M1525.31 1371.72L1504.87 1473.05M638.765 1541.38L670.098 1599.67C675.436 1609.59 684.714 1616.81 695.651 1619.54L879.946 1665.5C907.847 1672.46 936.603 1675.37 965.333 1674.14L1261.9 1661.49C1308.38 1659.5 1353.77 1646.74 1394.46 1624.2L1468.25 1583.33C1478.51 1577.65 1485.76 1567.75 1488.08 1556.25L1504.87 1473.05M638.765 1541.38L906.241 1592.77C921.378 1595.68 936.801 1596.83 952.202 1596.2L1113.57 1589.56L1313.69 1567C1342.3 1563.78 1369.87 1554.41 1394.53 1539.55L1504.87 1473.05" stroke="black" stroke-width="4"/>
<path d="M1051.87 1381.55L532.872 1277.56C522.161 1275.41 516.259 1289.54 525.313 1295.65L552.5 1314C553.545 1314.71 554.715 1315.21 555.947 1315.48L1000.27 1413.18L1065.08 1425.85C1106.47 1433.94 1149.36 1428.74 1187.62 1410.99L1258.41 1378.14L1332.58 1334.34L1587.21 1191.47L1598.89 1169.06L1595.32 1186.37C1591.14 1206.68 1606.65 1225.71 1627.38 1225.71C1637.09 1225.71 1646.29 1221.41 1652.51 1213.96L1658.42 1206.88C1674.7 1187.38 1668.93 1157.85 1646.51 1145.92L1619.51 1131.56C1606.77 1124.78 1591.37 1125.39 1579.21 1133.15L1313.8 1302.46C1300.64 1310.85 1286.85 1318.21 1272.56 1324.45L1171.24 1368.72C1133.7 1385.12 1092.04 1389.6 1051.87 1381.55Z" fill="#DA9C62"/>
<path d="M1598.89 1169.06L1595.32 1186.37C1591.14 1206.68 1606.65 1225.71 1627.38 1225.71V1225.71C1637.09 1225.71 1646.29 1221.41 1652.51 1213.96L1658.42 1206.88C1674.7 1187.38 1668.93 1157.85 1646.51 1145.92L1619.51 1131.56C1606.77 1124.78 1591.37 1125.39 1579.21 1133.15L1313.8 1302.46C1300.64 1310.85 1286.85 1318.21 1272.56 1324.45L1171.24 1368.72C1133.7 1385.12 1092.04 1389.6 1051.87 1381.55L532.872 1277.56C522.161 1275.41 516.259 1289.54 525.313 1295.65L552.5 1314C553.545 1314.71 554.715 1315.21 555.947 1315.48L1000.27 1413.18L1065.08 1425.85C1106.47 1433.94 1149.36 1428.74 1187.62 1410.99L1258.41 1378.14L1332.58 1334.34L1587.21 1191.47L1598.89 1169.06ZM1598.89 1169.06L1563.27 1237.39M1598.89 1169.06H1628.09L1623.42 1196.51" stroke="black" stroke-width="4"/>
<path d="M958.446 977.5L807.547 952.206L835.899 1046.01C850.628 1094.75 852.713 1146.43 841.956 1196.19L816.891 1312.15L1002.34 1297.05C1018.07 1295.77 1033.88 1295.74 1049.61 1296.94L1247.9 1312.15L1280.77 1222.18C1304.81 1156.35 1305.06 1084.19 1281.46 1018.21L1247.9 924.359L1091.72 969.722C1048.44 982.292 1002.89 984.95 958.446 977.5Z" fill="black" stroke="black" stroke-width="4"/>
<path d="M961.482 705.325L924.352 697.995L924.729 699.183C940.926 750.126 943.216 804.471 931.364 856.596L928.97 867.124L1009.84 860.867C1024.8 859.709 1039.83 859.676 1054.79 860.767L1142.01 867.124C1164.32 809.06 1164.55 744.826 1142.65 686.606L1142.01 684.91L1139.16 686.147C1083.26 710.442 1021.28 717.131 961.482 705.325Z" fill="black" stroke="black" stroke-width="4"/>
<path d="M1108.19 1177.34L985.385 1222.9C981.459 1224.36 977.27 1224.98 973.09 1224.72L960.978 1223.97C956.7 1223.7 952.639 1225.87 950.489 1229.58L948.673 1232.71C946.551 1236.37 947.786 1241.06 951.436 1243.19C954.131 1244.77 955.602 1247.83 955.156 1250.92L954.825 1253.21C954.089 1258.31 957.38 1263.13 962.402 1264.31C967.056 1265.39 971.825 1263.02 973.756 1258.65L976.408 1252.64C978.341 1248.27 981.949 1244.85 986.423 1243.16L1114.85 1194.57C1119.64 1192.76 1124.88 1192.57 1129.79 1194.03L1139.07 1196.8C1143.25 1198.05 1147.75 1196.45 1150.22 1192.86L1151.24 1191.38C1153.45 1188.15 1152.99 1183.8 1150.16 1181.11C1147.71 1178.79 1146.99 1175.19 1148.36 1172.12L1149.36 1169.86C1151.66 1164.67 1149.36 1158.6 1144.21 1156.24C1140.45 1154.51 1136.04 1155.18 1132.96 1157.94L1117.79 1171.55C1114.98 1174.06 1111.73 1176.03 1108.19 1177.34Z" fill="white" stroke="black" stroke-width="6"/>
<path d="M1037.64 1018.97H1049.1L1070.5 1021.95C1080.95 1023.4 1090.72 1027.96 1098.56 1035.03L1100.05 1036.37C1104.98 1040.82 1108.84 1046.34 1111.34 1052.49C1114.43 1060.11 1115.33 1068.44 1113.94 1076.54L1107.69 1112.72C1107.59 1113.3 1107.54 1113.89 1107.54 1114.48V1131.28V1135.16C1107.54 1141.94 1101.66 1147.22 1094.92 1146.48C1087.95 1145.72 1081.95 1151.37 1082.3 1158.37L1082.6 1164.22C1082.78 1167.91 1080.75 1171.34 1077.43 1172.95L1074.67 1174.28C1069.9 1176.6 1064.53 1173.38 1063.95 1168.46V1170.37C1063.95 1173.91 1061.25 1176.87 1057.73 1177.21C1053.87 1177.58 1050.47 1174.68 1050.22 1170.81L1050.04 1168.09L1049.59 1173.13C1049.24 1176.93 1045.67 1179.6 1041.93 1178.85C1039.07 1178.28 1036.96 1175.86 1036.77 1172.96L1036.58 1169.9C1036.26 1175.38 1029.8 1178.81 1024.99 1175.3L1021.78 1172.96C1019.49 1171.29 1018.14 1168.62 1018.14 1165.79V1161.48C1018.14 1153.96 1012.04 1147.87 1004.53 1147.87C999.159 1147.87 994.294 1144.71 992.102 1139.82L991.257 1137.93C989.359 1133.69 989.302 1128.85 991.1 1124.56L994.722 1115.93C995.351 1114.43 995.35 1112.74 994.719 1111.25L987.599 1094.34C982.252 1081.64 981.933 1067.38 986.707 1054.45C994.583 1033.13 1014.91 1018.97 1037.64 1018.97Z" fill="white" stroke="black" stroke-width="6"/>
<path d="M1023.77 1128.8C1014.47 1132.59 1004.67 1124.57 1006.55 1114.7C1008.05 1106.85 1016.35 1102.34 1023.76 1105.35C1034.27 1109.62 1034.28 1124.52 1023.77 1128.8Z" fill="black" stroke="black" stroke-width="6"/>
<path d="M1038.56 1146.49L1045.52 1135.31C1047.62 1131.95 1052.55 1132.09 1054.45 1135.56L1059.84 1145.4C1061.43 1148.31 1060.13 1151.96 1057.06 1153.2L1055.47 1153.84C1054.04 1154.42 1052.41 1153.95 1051.51 1152.7L1051.35 1152.49C1050 1150.62 1047.17 1150.78 1046.03 1152.78C1045.18 1154.27 1043.31 1154.82 1041.8 1154.02L1040.39 1153.28C1037.92 1151.98 1037.08 1148.85 1038.56 1146.49Z" fill="black" stroke="black" stroke-width="6"/>
<path d="M970.393 1160.45L981.978 1171.11C984.681 1173.6 987.819 1175.57 991.234 1176.93L1116.94 1226.78C1121.15 1228.45 1125.84 1228.47 1130.08 1226.84L1137.72 1223.89C1143.14 1221.8 1149.21 1224.65 1151.05 1230.16L1153.61 1237.79C1154.57 1240.64 1152.45 1243.59 1149.44 1243.59C1146.7 1243.59 1144.63 1246.07 1145.11 1248.76L1146.18 1254.79C1147.02 1259.57 1144.15 1264.22 1139.49 1265.6L1139.18 1265.69C1135.02 1266.92 1130.54 1265.3 1128.14 1261.69L1120.93 1250.88C1117.77 1246.14 1113.21 1242.49 1107.89 1240.45L982.542 1192.33C977.41 1190.36 971.71 1190.47 966.665 1192.66L957.877 1196.46C954.547 1197.9 950.667 1196.98 948.34 1194.2C945.915 1191.29 945.789 1187.11 948.037 1184.07L949.302 1182.36C951.183 1179.81 951.865 1176.58 951.172 1173.49L950.787 1171.78C949.609 1166.53 952.112 1161.14 956.885 1158.66C961.316 1156.35 966.717 1157.07 970.393 1160.45Z" fill="white" stroke="black" stroke-width="6"/>
<path d="M1020.02 1021.37L1014.89 1025.8L1095.56 1146.3L1103.3 1143.37L1020.02 1021.37Z" fill="black" stroke="black" stroke-width="4"/>
<path d="M1079.24 1131.46C1087.71 1133.97 1095.95 1126.92 1094.77 1118.17C1093.72 1110.31 1085.55 1105.54 1078.19 1108.48C1067.47 1112.76 1068.17 1128.18 1079.24 1131.46Z" fill="black" stroke="black" stroke-width="6"/>
<circle cx="1030.64" cy="505.033" r="26.0329" fill="#846243" stroke="black" stroke-width="4"/>
</svg>
