<svg width="2000" height="2000" viewBox="0 0 2000 2000" fill="none" xmlns="http://www.w3.org/2000/svg">
<circle cx="1000" cy="1000" r="1000" fill="#F5A9B8"/>
<path d="M511 549.066L560.136 549.872L802.745 1677.95L756.46 1664.6L511 549.066Z" fill="black"/>
<path d="M698.888 640.919L620 617.724L771.19 1210.66L921.811 1228.48C953.607 1232.24 985.801 1230.89 1017.17 1224.48L1330.18 1160.46C1393.06 1147.6 1458.42 1155.25 1516.64 1182.28L1539 1192.67L1411.53 617.724L1205.13 589.264C1171.04 584.563 1136.39 585.763 1102.71 592.811L844.956 646.744C796.531 656.876 746.352 654.875 698.888 640.919Z" fill="black" stroke="black" stroke-width="4"/>
<path d="M1198.37 947.221L979.681 1080.07C976.101 1082.24 972.106 1083.64 967.952 1084.18L939.91 1087.8C931.948 1088.83 925.251 1094.27 922.612 1101.86L920.383 1108.26C917.779 1115.74 921.713 1123.92 929.183 1126.55C934.701 1128.5 938.489 1133.59 938.766 1139.44L938.972 1143.77C939.429 1153.42 947.191 1161.12 956.845 1161.49C965.789 1161.84 973.716 1155.77 975.717 1147.05L978.787 1133.66C980.583 1125.83 985.447 1119.05 992.289 1114.83L1216.42 976.705C1222.02 973.258 1228.59 971.743 1235.13 972.392L1257.8 974.645C1265.93 975.452 1273.65 970.924 1276.92 963.436L1278.26 960.351C1281.19 953.637 1278.8 945.791 1272.62 941.852C1267.31 938.463 1264.71 932.096 1266.12 925.956L1267.16 921.443C1269.55 911.091 1263.18 900.741 1252.86 898.217C1245.34 896.379 1237.45 899.178 1232.78 905.341L1206.69 939.717C1204.41 942.719 1201.59 945.265 1198.37 947.221Z" fill="white" stroke="black" stroke-width="6"/>
<path d="M1008.15 683.587L1029.22 679.522L1069.63 677.408C1089.37 676.376 1108.96 681.288 1125.88 691.508L1129.09 693.449C1139.75 699.886 1148.81 708.653 1155.59 719.092C1163.98 732 1168.59 747 1168.89 762.391L1170.25 831.14C1170.27 832.245 1170.39 833.345 1170.6 834.43L1176.56 865.337L1177.94 872.48C1180.35 884.948 1171.39 896.742 1158.73 897.773C1145.65 898.839 1136.63 911.359 1139.76 924.107L1142.37 934.778C1144.02 941.484 1141.5 948.524 1135.96 952.658L1131.37 956.092C1123.42 962.036 1112.4 958.027 1109.57 949.193L1110.25 952.698C1111.51 959.212 1107.61 965.614 1101.24 967.482C1094.28 969.527 1087 965.408 1085.17 958.382L1083.88 953.432L1084.82 962.866C1085.54 969.985 1079.92 976.151 1072.76 976.103C1067.32 976.066 1062.57 972.375 1061.2 967.103L1059.75 961.549C1061.11 971.739 1050.45 980.341 1040.35 975.588L1033.62 972.419C1028.82 970.159 1025.38 965.74 1024.38 960.528L1022.85 952.601C1020.18 938.776 1006.81 929.731 992.984 932.399C983.116 934.303 973.049 930.232 967.28 922.002L964.69 918.309C959.927 911.515 958.19 903.051 959.893 894.93L963.622 877.145C964.247 874.166 963.646 871.061 961.955 868.53L942.859 839.956C928.519 818.498 922.873 792.391 927.065 766.926C933.982 724.912 966.339 691.655 1008.15 683.587Z" fill="white" stroke="black" stroke-width="6"/>
<path d="M1008.82 846.496L1022.22 849.151C1039.82 852.636 1044.28 875.732 1029.25 885.525L1015.88 894.244C1002.59 902.904 984.989 893.39 984.957 877.528L984.934 866.155C984.909 853.532 996.438 844.043 1008.82 846.496Z" fill="black" stroke="black" stroke-width="6"/>
<path d="M1055.09 917.778L1063.93 894.748C1066.59 887.834 1075.71 886.339 1080.43 892.042L1093.85 908.235C1097.81 913.018 1096.71 920.189 1091.49 923.562L1088.79 925.306C1086.38 926.867 1083.21 926.583 1081.11 924.617L1080.75 924.272C1077.6 921.32 1072.45 922.612 1071.06 926.702C1070.04 929.739 1066.78 931.412 1063.72 930.481L1060.88 929.619C1055.87 928.101 1053.21 922.657 1055.09 917.778Z" fill="black" stroke="black" stroke-width="6"/>
<path d="M934.679 967.657L963.896 985.704C967.022 987.635 970.476 988.975 974.086 989.657L1229.18 1037.9C1236.6 1039.31 1244.26 1037.86 1250.66 1033.87L1264.93 1024.94C1274.15 1019.18 1286.32 1022.27 1291.67 1031.74L1299.09 1044.87C1301.86 1049.78 1299.01 1055.96 1293.47 1057.02C1288.44 1057.99 1285.5 1063.28 1287.34 1068.07L1291.44 1078.78C1294.7 1087.26 1291.06 1096.84 1282.99 1101.02L1282.45 1101.3C1275.23 1105.05 1266.42 1103.65 1260.71 1097.87L1238.81 1075.66C1234.45 1071.24 1228.82 1068.28 1222.7 1067.19L964.571 1021.3C956.845 1019.92 948.889 1021.63 942.407 1026.05L924.438 1038.32C918.826 1042.15 911.362 1041.83 906.094 1037.54C900.605 1033.07 898.89 1025.42 901.944 1019.03L903.664 1015.43C906.22 1010.08 906.326 1003.89 903.957 998.46L902.641 995.445C898.61 986.207 901.302 975.414 909.199 969.152C916.531 963.338 926.718 962.741 934.679 967.657Z" fill="white" stroke="black" stroke-width="6"/>
<path d="M976.591 694.257L968.737 704.218L1159.86 897.211L1173.06 889.063L976.591 694.257Z" fill="black" stroke="black" stroke-width="4"/>
<path d="M1117.51 831.878L1107.69 838.184C1091.72 848.429 1097.66 873.069 1116.54 874.921L1128.89 876.132C1143.32 877.548 1154.42 863.608 1149.8 849.859L1147.27 842.341C1143.13 829.996 1128.47 824.844 1117.51 831.878Z" fill="black" stroke="black" stroke-width="6"/>
</svg>
