<svg width="2000" height="2000" viewBox="0 0 2000 2000" fill="none" xmlns="http://www.w3.org/2000/svg">
<circle cx="1000" cy="1000" r="1000" fill="#82CBBA"/>
<path d="M600.222 1091.73L696.585 1075.16L662.618 1015.3L633.464 960.868C620.683 937.003 612.879 910.791 610.527 883.821L596.921 727.845C594.381 698.721 598.257 669.393 608.275 641.929L626.74 591.308C633.37 573.133 642.602 556.015 654.147 540.491L719.184 453.042C729.949 438.568 742.622 425.616 756.86 414.54L832.51 355.686C845.366 345.684 859.396 337.291 874.288 330.691L931.993 305.119C963.242 291.271 997.519 285.663 1031.55 288.829L1093.12 294.558C1110.14 296.142 1126.89 299.901 1142.95 305.745L1258.28 347.691C1283.62 356.909 1306.83 371.156 1326.53 389.576L1398.5 456.894C1413.56 470.98 1426.36 487.312 1436.42 505.308L1494.44 608.997C1511.13 638.837 1519.9 672.458 1519.9 706.65V758.016C1519.9 774.159 1517.94 790.244 1514.08 805.918L1489.17 906.9L1459.52 981.027C1453.43 996.268 1445.48 1010.7 1435.86 1024L1361.38 1126.94L1447.27 1114.44C1449.3 1114.15 1451.24 1113.44 1452.99 1112.36L1543.84 1056.32C1546.17 1054.89 1548.06 1052.85 1549.31 1050.42L1575.78 998.928C1576.27 997.981 1576.85 997.089 1577.53 996.267L1600.3 968.539C1606.86 960.555 1619.33 961.435 1624.7 970.261L1633.29 984.373C1635.26 987.613 1635.93 991.48 1635.17 995.195L1614.04 1097.87C1613.82 1098.91 1613.5 1099.92 1613.07 1100.89L1553.87 1235.34L1603.79 1215.67C1606.06 1214.77 1608.07 1213.34 1609.66 1211.5L1657.39 1156.06L1684.64 1123.84C1689.43 1118.18 1697.64 1116.87 1703.96 1120.76L1706.86 1122.54C1711.3 1125.27 1714 1130.11 1714 1135.32V1182.11C1714 1184.14 1713.59 1186.15 1712.79 1188.01L1680.88 1262.48C1680.32 1263.8 1679.57 1265.02 1678.66 1266.12L1628.57 1326.85C1627.31 1328.39 1625.75 1329.66 1623.99 1330.58L1536.18 1376.81C1535.03 1377.41 1533.82 1377.86 1532.56 1378.15L1451.54 1396.86C1450.74 1397.04 1449.94 1397.16 1449.13 1397.21L1351.76 1403.49C1350.63 1403.57 1349.5 1403.51 1348.38 1403.33L1270.8 1390.66L1345.92 1452C1348.6 1454.18 1351.95 1455.38 1355.41 1455.38H1438.89C1440.05 1455.38 1441.21 1455.24 1442.34 1454.97L1524.01 1435.67C1527.61 1434.81 1531.4 1435.32 1534.65 1437.1L1535.78 1437.71C1542.42 1441.34 1545.32 1449.33 1542.56 1456.37L1530.9 1486.06C1530.05 1488.22 1528.7 1490.16 1526.97 1491.72L1483.19 1531.14C1481.79 1532.39 1480.18 1533.37 1478.42 1534.03L1405.99 1561.2C1404.3 1561.84 1402.52 1562.16 1400.72 1562.16H1326.03C1324.8 1562.16 1323.58 1562.01 1322.39 1561.71L1249.18 1543.41C1247.43 1542.97 1245.78 1542.22 1244.3 1541.2L1180.27 1496.97C1179.16 1496.21 1178.17 1495.3 1177.3 1494.28L1144.64 1455.38L1091.26 1382.57L1102.4 1454.23C1102.52 1454.99 1102.58 1455.76 1102.58 1456.54V1528.75C1102.58 1531.55 1101.8 1534.3 1100.32 1536.67L1058.83 1603.37C1057.81 1605 1056.49 1606.43 1054.93 1607.56L981.681 1660.99C980.336 1661.97 979.164 1663.17 978.213 1664.53L946.924 1709.44C944.119 1713.46 939.523 1715.86 934.617 1715.86H920.934C916.155 1715.86 911.662 1713.58 908.837 1709.73L898.442 1695.55C896.556 1692.98 895.539 1689.87 895.539 1686.68V1633.65C895.539 1631.32 896.081 1629.03 897.122 1626.95L919.012 1583.15C919.537 1582.1 919.936 1581 920.203 1579.85L930.732 1534.72C930.993 1533.6 931.124 1532.46 931.124 1531.31V1482.08C931.124 1480.47 930.865 1478.87 930.355 1477.34L920.952 1449.12C920.196 1446.85 919.994 1444.44 920.361 1442.07L931.124 1372.86L904.768 1436.44C904.015 1438.26 902.911 1439.91 901.519 1441.31L864.91 1477.92C863.77 1479.06 862.454 1480.01 861.012 1480.73L808.126 1507.18C806.043 1508.23 803.746 1508.77 801.417 1508.77H735.406H664.584C663.278 1508.77 661.979 1508.94 660.718 1509.27L617.451 1520.82C615.241 1521.4 613.195 1522.49 611.47 1523.99L493.778 1626.43C491.048 1628.8 487.55 1630.11 483.93 1630.11H474.282C468.742 1630.11 463.653 1627.06 461.046 1622.17L454.105 1609.15C452.947 1606.98 452.341 1604.56 452.341 1602.09V1546.07C452.341 1542.86 453.37 1539.73 455.277 1537.15L505.459 1469.24C506.697 1467.57 508.27 1466.17 510.079 1465.13L571.813 1429.85C574.08 1428.55 576.645 1427.87 579.256 1427.87H597.705C600.99 1427.87 604.185 1426.79 606.797 1424.8L636.737 1401.98H607.531C604.433 1401.98 601.411 1401.03 598.88 1399.24L575.272 1382.57L542.54 1360.74C541.718 1360.19 540.952 1359.57 540.254 1358.87L493.937 1312.54C491.124 1309.73 487.308 1308.15 483.329 1308.15H468.737C466.463 1308.15 464.219 1308.66 462.174 1309.66L406.753 1336.63C405.875 1337.05 405.041 1337.56 404.263 1338.15L352.172 1377.58C348.071 1380.69 342.666 1381.47 337.851 1379.67L326.89 1375.56C322.378 1373.86 318.954 1370.11 317.686 1365.46L311.221 1341.74C310.425 1338.83 310.53 1335.74 311.521 1332.88L335.932 1262.5C336.951 1259.57 338.856 1257.02 341.384 1255.21L402.27 1211.71C404.345 1210.23 406.763 1209.3 409.296 1209.01L475.24 1201.52C476.147 1201.41 477.062 1201.39 477.973 1201.46L593.065 1209.45L480.772 1187.61C478.047 1187.08 475.522 1185.81 473.479 1183.93L441.009 1154.05C437.922 1151.21 436.166 1147.2 436.166 1143.01V1076.54C436.166 1075.63 436.25 1074.71 436.417 1073.81L452.09 989.15C452.257 988.25 452.341 987.336 452.341 986.42V929.904C452.341 926.532 453.477 923.258 455.567 920.611L468.574 904.13C473.186 898.287 481.384 896.71 487.835 900.425L522.467 920.37C527.116 923.048 529.982 928.004 529.982 933.369V1029.64C529.982 1033.9 531.792 1037.96 534.962 1040.8L587.66 1088.11C591.074 1091.17 595.701 1092.51 600.222 1091.73Z" fill="#CEA3BB"/>
<path d="M593.065 1209.45L480.772 1187.61C478.047 1187.08 475.522 1185.81 473.479 1183.93L441.009 1154.05C437.922 1151.21 436.166 1147.2 436.166 1143.01V1076.54C436.166 1075.63 436.25 1074.71 436.417 1073.81L452.09 989.15C452.257 988.25 452.341 987.336 452.341 986.42V929.904C452.341 926.532 453.477 923.258 455.567 920.611L468.574 904.13C473.186 898.287 481.384 896.71 487.835 900.425L522.467 920.37C527.116 923.048 529.982 928.004 529.982 933.369V1029.64C529.982 1033.9 531.792 1037.96 534.962 1040.8L587.66 1088.11C591.074 1091.17 595.701 1092.51 600.222 1091.73L696.585 1075.16L662.618 1015.3L633.464 960.868C620.683 937.003 612.879 910.791 610.527 883.821L596.921 727.845C594.381 698.721 598.257 669.393 608.275 641.929L626.74 591.308C633.37 573.133 642.602 556.015 654.147 540.491L719.184 453.042C729.949 438.568 742.622 425.616 756.86 414.54L832.51 355.686C845.366 345.684 859.396 337.291 874.288 330.691L931.993 305.119C963.242 291.271 997.519 285.663 1031.55 288.829L1093.12 294.558C1110.14 296.142 1126.89 299.901 1142.95 305.745L1258.28 347.691C1283.62 356.909 1306.83 371.156 1326.53 389.576L1398.5 456.894C1413.56 470.98 1426.36 487.312 1436.42 505.308L1494.44 608.997C1511.13 638.837 1519.9 672.458 1519.9 706.65V758.016C1519.9 774.159 1517.94 790.244 1514.08 805.918L1489.17 906.9L1459.52 981.027C1453.43 996.268 1445.48 1010.7 1435.86 1024L1361.38 1126.94L1447.27 1114.44C1449.3 1114.15 1451.24 1113.44 1452.99 1112.36L1543.84 1056.32C1546.17 1054.89 1548.06 1052.85 1549.31 1050.42L1575.78 998.928C1576.27 997.981 1576.85 997.089 1577.53 996.267L1600.3 968.539C1606.86 960.555 1619.33 961.435 1624.7 970.261L1633.29 984.373C1635.26 987.613 1635.93 991.48 1635.17 995.195L1614.04 1097.87C1613.82 1098.91 1613.5 1099.92 1613.07 1100.89L1553.87 1235.34M593.065 1209.45H673.94L696.585 1186.8M593.065 1209.45L477.973 1201.46C477.062 1201.39 476.147 1201.41 475.24 1201.52L409.296 1209.01C406.763 1209.3 404.345 1210.23 402.27 1211.71L341.384 1255.21C338.856 1257.02 336.951 1259.57 335.932 1262.5L311.521 1332.88C310.53 1335.74 310.425 1338.83 311.221 1341.75L317.686 1365.46C318.954 1370.11 322.378 1373.86 326.89 1375.56L337.851 1379.67C342.666 1381.47 348.071 1380.69 352.172 1377.58L404.263 1338.15C405.041 1337.56 405.875 1337.05 406.753 1336.63L462.174 1309.66C464.219 1308.66 466.463 1308.15 468.737 1308.15H483.329C487.308 1308.15 491.124 1309.73 493.937 1312.54L540.254 1358.87C540.952 1359.57 541.718 1360.19 542.54 1360.74L575.272 1382.57L598.88 1399.24C601.411 1401.03 604.433 1401.98 607.531 1401.98H636.737M636.737 1401.98L685.376 1375.45C688.439 1373.78 690.824 1371.09 692.12 1367.85L714.99 1310.66C715.655 1309 716.612 1307.47 717.817 1306.14L780.696 1236.96M636.737 1401.98L606.797 1424.8C604.185 1426.79 600.99 1427.87 597.705 1427.87H579.256C576.645 1427.87 574.08 1428.55 571.813 1429.85L510.079 1465.13C508.27 1466.17 506.697 1467.57 505.459 1469.24L455.277 1537.15C453.37 1539.73 452.341 1542.86 452.341 1546.07V1602.09C452.341 1604.56 452.947 1606.98 454.105 1609.15L461.046 1622.17C463.653 1627.06 468.742 1630.11 474.282 1630.11H483.93C487.55 1630.11 491.048 1628.8 493.778 1626.43L611.47 1523.99C613.195 1522.49 615.241 1521.4 617.451 1520.82L660.718 1509.27C661.979 1508.94 663.278 1508.77 664.584 1508.77H735.406H801.417C803.746 1508.77 806.043 1508.23 808.126 1507.18L861.012 1480.73C862.454 1480.01 863.77 1479.06 864.91 1477.92L901.519 1441.3C902.911 1439.91 904.015 1438.26 904.768 1436.44L931.124 1372.86L920.361 1442.07C919.994 1444.44 920.196 1446.85 920.952 1449.12L930.355 1477.34C930.865 1478.87 931.124 1480.47 931.124 1482.08V1531.31C931.124 1532.46 930.993 1533.6 930.732 1534.72L920.203 1579.85C919.936 1581 919.537 1582.1 919.012 1583.15L897.122 1626.95C896.081 1629.03 895.539 1631.32 895.539 1633.65V1686.68C895.539 1689.87 896.556 1692.98 898.442 1695.55L908.837 1709.73C911.662 1713.58 916.155 1715.86 920.934 1715.86H934.617C939.523 1715.86 944.119 1713.46 946.924 1709.44L978.213 1664.53C979.164 1663.17 980.336 1661.97 981.681 1660.99L1054.93 1607.56C1056.49 1606.43 1057.81 1605 1058.83 1603.37L1100.32 1536.67C1101.8 1534.3 1102.58 1531.55 1102.58 1528.75V1456.54C1102.58 1455.76 1102.52 1454.99 1102.4 1454.23L1091.26 1382.57L1144.64 1455.38L1177.3 1494.28C1178.17 1495.3 1179.16 1496.21 1180.27 1496.97L1244.3 1541.2C1245.78 1542.22 1247.43 1542.97 1249.18 1543.41L1322.39 1561.71C1323.58 1562.01 1324.8 1562.16 1326.03 1562.16H1400.72C1402.52 1562.16 1404.3 1561.84 1405.99 1561.2L1478.42 1534.03C1480.18 1533.37 1481.79 1532.39 1483.19 1531.14L1526.97 1491.72C1528.7 1490.16 1530.05 1488.22 1530.9 1486.06L1542.56 1456.37C1545.32 1449.33 1542.42 1441.34 1535.78 1437.71L1534.65 1437.1C1531.4 1435.32 1527.61 1434.81 1524.01 1435.67L1442.34 1454.97C1441.21 1455.24 1440.05 1455.38 1438.89 1455.38H1355.41C1351.95 1455.38 1348.6 1454.18 1345.92 1452L1270.8 1390.66M1270.8 1390.66L1262.71 1311.38M1270.8 1390.66L1348.38 1403.33C1349.5 1403.51 1350.63 1403.57 1351.76 1403.49L1449.13 1397.21C1449.94 1397.16 1450.74 1397.04 1451.54 1396.86L1532.56 1378.15C1533.82 1377.86 1535.03 1377.41 1536.18 1376.81L1623.99 1330.58C1625.75 1329.66 1627.31 1328.39 1628.57 1326.85L1678.66 1266.12C1679.57 1265.02 1680.32 1263.8 1680.88 1262.48L1712.79 1188.01C1713.59 1186.15 1714 1184.14 1714 1182.11V1135.32C1714 1130.11 1711.3 1125.27 1706.86 1122.54L1703.96 1120.76C1697.64 1116.87 1689.43 1118.18 1684.64 1123.84L1657.39 1156.06L1609.66 1211.5C1608.07 1213.34 1606.06 1214.77 1603.79 1215.67L1553.87 1235.34M1553.87 1235.34L1483.12 1255.78C1481.77 1256.17 1480.36 1256.37 1478.95 1256.37H1408.54C1405.23 1256.37 1402.02 1255.28 1399.39 1253.26L1361.38 1224.01L1324.18 1196.51" stroke="black" stroke-width="7" stroke-linecap="round"/>
<ellipse cx="856.94" cy="911.5" rx="59.9638" ry="62.9922" fill="black"/>
<ellipse cx="1228.84" cy="911.5" rx="59.9638" ry="62.9922" fill="black"/>
<path d="M950.824 974.492L978.857 996.331C985.882 1001.8 994.534 1004.78 1003.44 1004.78H1029.11C1031.98 1004.78 1034.85 1004.47 1037.65 1003.85L1064.1 998.07C1072.58 996.216 1080.22 991.654 1085.88 985.073L1094.98 974.492" stroke="black" stroke-width="6" stroke-linecap="round"/>
</svg>
