<svg width="2000" height="2000" viewBox="0 0 2000 2000" fill="none" xmlns="http://www.w3.org/2000/svg">
<circle cx="1000" cy="1000" r="1000" fill="#DF6C2E"/>
<path d="M640.443 1745.1L965.108 1390.7C984.101 1369.96 1016.32 1368.58 1037.01 1387.61C1057.65 1406.59 1059.03 1438.69 1040.11 1459.37L720.264 1808.88C716.247 1813.27 711.611 1817.05 706.503 1820.1L703.905 1821.65C696.107 1826.32 687.192 1828.78 678.107 1828.78C668.101 1828.78 658.323 1825.79 650.023 1820.2L645.166 1816.93C639.065 1812.83 634.115 1807.23 630.787 1800.67C625.787 1790.81 624.76 1779.41 627.916 1768.82L628.934 1765.41C631.185 1757.85 635.12 1750.91 640.443 1745.1Z" fill="#515060" stroke="black" stroke-linecap="round"/>
<path d="M1228.55 225.416L1215.75 189.555C1213.66 183.717 1218.8 177.857 1224.86 179.156C1225.04 179.194 1225.2 179.296 1225.32 179.442L1235.89 192.948C1240.85 199.287 1245.02 206.202 1248.33 213.543L1279.79 283.452L1314.19 381.616L1351.64 510.14L1370.89 612.281C1373.57 626.478 1375.22 640.849 1375.82 655.283L1380.99 778.32L1369.96 902.969C1368.54 919.019 1365.83 934.929 1361.86 950.545L1339.49 1038.4L1312.09 1109.65C1306.75 1123.53 1300.39 1136.99 1293.06 1149.93L1260.79 1206.84C1252.55 1221.36 1243.12 1235.17 1232.59 1248.12L1160.37 1336.94L1082.45 1413.86L1093.38 1431.96C1105.58 1452.15 1114.56 1474.12 1120 1497.08C1126.61 1525 1127.88 1553.93 1123.72 1582.32L1121.55 1597.15C1119.1 1613.89 1114.93 1630.33 1109.11 1646.22C1100.16 1670.62 1087.4 1693.44 1071.32 1713.85L1070.66 1714.68C1059.66 1728.64 1047.21 1741.39 1033.54 1752.73L1012.62 1770.08L1004.06 1776.02C985.612 1788.83 965.124 1798.43 943.468 1804.41C926.228 1809.16 908.426 1811.57 890.542 1811.57H882.255C861.294 1811.57 840.41 1809.04 820.056 1804.03L813.291 1802.36C794.439 1797.72 776.185 1790.92 758.891 1782.1C743.227 1774.11 728.44 1764.5 714.772 1753.44L692.826 1735.67L665.502 1709.36L644.965 1691.62C643.924 1690.72 643.543 1689.28 644.006 1687.98C646.856 1680 650.71 1672.42 655.475 1665.41L660.951 1657.36C663.196 1654.06 668.01 1653.91 670.451 1657.07L699.91 1695.19L737.21 1734.08C744.034 1741.19 751.593 1747.56 759.76 1753.08C776.338 1764.28 795.133 1771.78 814.867 1775.07L824.523 1776.68C834.535 1778.35 844.667 1779.19 854.817 1779.19H874.804C887.035 1779.19 899.233 1777.9 911.193 1775.33C927.451 1771.85 943.124 1766.05 957.734 1758.11L958.613 1757.63C974.29 1749.11 988.618 1738.31 1001.13 1725.59L1021.02 1705.37C1035.53 1690.62 1047.2 1673.31 1055.43 1654.32L1059.05 1645.96C1065.81 1630.37 1069.29 1613.56 1069.29 1596.57C1069.29 1574.35 1063.32 1552.52 1052.02 1533.39L1051.13 1531.89C1045.72 1522.72 1039.2 1514.26 1031.73 1506.68L976.186 1450.29L880.587 1375.39C879.224 1374.32 879.101 1372.3 880.326 1371.07C888.817 1362.58 898.982 1355.95 910.174 1351.6L911.418 1351.11C937.779 1341.89 966.324 1340.9 993.256 1348.3L1003.51 1351.11L1054.11 1283.31L1105.62 1189.13C1114.44 1173.01 1121.76 1156.12 1127.49 1138.66L1160.37 1038.4L1176.81 956.213C1180.68 936.841 1182.63 917.133 1182.63 897.378V801.596L1173.64 710.163C1171.55 688.87 1167.18 667.862 1160.62 647.498L1131.02 555.68L1089.53 467.636L1080.27 449.124C1079.41 447.4 1080.67 445.372 1082.59 445.372C1125.55 445.372 1160.37 410.55 1160.37 367.595V356.067C1160.37 336.533 1166.78 317.538 1178.6 301.992L1226.43 239.135C1229.41 235.215 1230.21 230.054 1228.55 225.416Z" fill="#865245"/>
<path d="M1003.51 1351.11L1054.11 1283.31L1105.62 1189.13C1114.44 1173.01 1121.76 1156.12 1127.49 1138.66L1160.37 1038.4L1176.81 956.213C1180.68 936.841 1182.63 917.133 1182.63 897.378V801.596L1173.64 710.163C1171.55 688.87 1167.18 667.862 1160.62 647.498L1131.02 555.68L1089.53 467.636L1080.27 449.124C1079.41 447.4 1080.67 445.372 1082.59 445.372V445.372C1125.55 445.372 1160.37 410.55 1160.37 367.595V356.067C1160.37 336.533 1166.78 317.538 1178.6 301.992L1226.43 239.135C1229.41 235.216 1230.21 230.054 1228.55 225.416L1215.75 189.555C1213.66 183.717 1218.8 177.857 1224.86 179.156V179.156C1225.04 179.194 1225.2 179.296 1225.32 179.442L1235.89 192.948C1240.85 199.287 1245.02 206.202 1248.33 213.543L1279.79 283.452L1314.19 381.616L1351.64 510.14L1370.89 612.281C1373.57 626.478 1375.22 640.849 1375.82 655.283L1380.99 778.32L1369.96 902.968C1368.54 919.019 1365.83 934.929 1361.86 950.545L1339.49 1038.4L1312.09 1109.65C1306.75 1123.53 1300.39 1136.99 1293.06 1149.93L1260.79 1206.84C1252.55 1221.36 1243.12 1235.17 1232.59 1248.12L1160.37 1336.94L1082.45 1413.86M1003.51 1351.11L993.256 1348.3C966.324 1340.9 937.779 1341.89 911.418 1351.11V1351.11L910.174 1351.6C898.982 1355.95 888.817 1362.58 880.326 1371.07V1371.07C879.101 1372.3 879.224 1374.32 880.587 1375.39L976.186 1450.29L1031.73 1506.68C1039.2 1514.26 1045.72 1522.72 1051.13 1531.89L1052.02 1533.39C1063.32 1552.52 1069.29 1574.35 1069.29 1596.57V1596.57C1069.29 1613.56 1065.81 1630.37 1059.05 1645.96L1055.43 1654.32C1047.2 1673.31 1035.53 1690.62 1021.02 1705.37L1001.13 1725.59C988.618 1738.31 974.29 1749.11 958.613 1757.63L957.734 1758.11C943.124 1766.05 927.451 1771.85 911.193 1775.33V1775.33C899.233 1777.9 887.035 1779.19 874.804 1779.19H854.817C844.667 1779.19 834.535 1778.35 824.523 1776.68L814.867 1775.07C795.133 1771.78 776.338 1764.28 759.76 1753.08V1753.08C751.593 1747.56 744.034 1741.19 737.21 1734.08L699.91 1695.19L670.451 1657.07C668.01 1653.91 663.196 1654.06 660.951 1657.36L655.475 1665.41C650.71 1672.42 646.856 1680 644.006 1687.98V1687.98C643.543 1689.28 643.924 1690.72 644.965 1691.62L665.502 1709.36L692.826 1735.67L714.772 1753.44C728.44 1764.5 743.227 1774.11 758.891 1782.1V1782.1C776.185 1790.92 794.439 1797.72 813.291 1802.36L820.056 1804.03C840.41 1809.04 861.294 1811.57 882.255 1811.57H890.542C908.426 1811.57 926.228 1809.16 943.468 1804.41V1804.41C965.124 1798.43 985.612 1788.83 1004.06 1776.02L1012.62 1770.08L1033.54 1752.73C1047.21 1741.39 1059.66 1728.64 1070.66 1714.68L1071.32 1713.85C1087.4 1693.44 1100.16 1670.62 1109.11 1646.22V1646.22C1114.93 1630.33 1119.1 1613.89 1121.55 1597.15L1123.72 1582.32C1127.88 1553.93 1126.61 1525 1120 1497.08V1497.08C1114.56 1474.12 1105.58 1452.15 1093.38 1431.96L1082.45 1413.86M1003.51 1351.11L1054.11 1387.54L1082.45 1413.86" stroke="black" stroke-linecap="round"/>
<path d="M1211.98 196.42L1218.99 175.414C1219.04 175.25 1219.11 175.09 1219.18 174.936C1221.95 169.396 1229.93 169.596 1232.41 175.266L1244.37 202.492L1280.8 283.452L1315.21 381.616L1352.65 510.14L1371.91 612.281C1374.58 626.478 1376.23 640.849 1376.84 655.283L1382 778.32L1370.98 902.969C1369.56 919.019 1366.85 934.93 1362.87 950.545L1340.51 1038.4L1313.11 1109.65C1307.77 1123.53 1301.4 1136.99 1294.07 1149.93L1261.46 1207.43C1253.45 1221.56 1244.31 1235.01 1234.12 1247.66L1161.38 1337.96L1083.46 1418.92L1004.52 1349.09L1100.48 1195.9C1113.37 1175.31 1123.72 1153.23 1131.29 1130.15L1161.38 1038.4L1177.82 956.213C1181.7 936.841 1183.65 917.134 1183.65 897.378V801.596L1174.65 710.163C1172.56 688.87 1168.19 667.862 1161.63 647.498L1132.04 555.68L1090.54 467.636L1082.55 451.654C1080.67 447.885 1081.35 443.338 1084.26 440.286L1092.18 431.964C1110.57 412.653 1126.31 390.975 1138.97 367.505L1161.38 325.956L1211.98 196.42Z" fill="#CCCCCC" stroke="black" stroke-linecap="round"/>
</svg>
