<svg width="421" height="563" viewBox="0 0 421 563" fill="none" xmlns="http://www.w3.org/2000/svg">
<rect x="75" y="65.0703" width="22.5583" height="456.891" rx="6" transform="rotate(-7.82215 75 65.0703)" fill="#A4907E"/>
<path d="M102.453 541.742C126.051 450.681 41.7796 420.841 5.4622 509.314C3.15521 514.934 6.29646 521.215 12.058 523.141L88.8775 548.827C94.6391 550.754 100.929 547.623 102.453 541.742Z" fill="#665A4E"/>
<path d="M85.9814 473.176C68.5417 473.059 61.5453 466.633 60.2271 463.435C85.4207 421.243 73.2239 430.781 130.528 407.429C177.243 392.906 162.246 349.343 145.71 336.95C94.2835 309.747 75.7816 352.37 73.7262 386.531C67.2521 384.228 52.0204 373.322 58.05 347.623C64.0797 321.923 112.673 283.435 158.542 317.624C204.411 351.812 191.416 403.53 146.499 429.345C94.9057 437.724 93.8002 443.972 85.9814 473.176Z" fill="#C7C5C5"/>
<rect x="75" y="65.0703" width="22.5583" height="347.187" rx="6" transform="rotate(-7.82215 75 65.0703)" fill="#A4907E"/>
<path d="M75.5104 73.9085C74.4204 65.972 79.7913 57.7653 87.5137 55.5793C176.687 30.8506 267.543 18.3726 360.081 18.1453C368.098 18.1696 375.491 24.6233 376.581 32.5598C377.77 41.2178 378.958 49.867 380.145 58.5072C278.649 64.0002 178.292 77.7831 79.0739 99.8558C77.8873 91.2156 76.6994 82.5665 75.5104 73.9085Z" fill="#5BCEFA"/>
<path d="M95.6073 220.24C195.207 200.94 295.564 187.157 396.678 178.891C397.86 187.496 399.038 196.098 400.213 204.697C401.3 212.543 395.706 219.256 387.759 219.676C295.916 225.011 205.06 237.489 115.192 257.11C107.408 258.85 100.229 253.892 99.1513 246.044C97.9703 237.446 96.789 228.844 95.6073 220.24Z" fill="#5BCEFA"/>
<path d="M79.0739 99.8558C178.292 77.7831 278.649 64.0002 380.145 58.5072C381.985 71.9039 383.824 85.2947 385.662 98.6796C284.523 106.768 184.166 120.551 84.5912 140.028C82.7529 126.643 80.9138 113.253 79.0739 99.8558Z" fill="#F5A9B8"/>
<path d="M90.1023 180.156C189.79 161.504 290.147 147.721 391.173 138.808C393.009 152.175 394.844 165.536 396.678 178.891C295.564 187.157 195.207 200.94 95.6073 220.24C93.7731 206.884 91.9381 193.523 90.1023 180.156Z" fill="#F5A9B8"/>
<path d="M84.5912 140.028C184.166 120.551 284.523 106.768 385.662 98.6796C387.499 112.059 389.336 125.435 391.173 138.808C290.147 147.721 189.79 161.504 90.1023 180.156C88.2656 166.783 86.4286 153.407 84.5912 140.028Z" fill="white"/>
</svg>
