<svg width="2000" height="2000" viewBox="0 0 2000 2000" fill="none" xmlns="http://www.w3.org/2000/svg">
<circle cx="1000" cy="1000" r="1000" fill="#FFBA6E"/>
<path d="M1869.42 1238.58L1729.08 1371.48C1728.05 1372.45 1726.67 1372.94 1725.26 1372.83L1063.69 1322.45C1063.45 1322.43 1063.21 1322.43 1062.96 1322.45L338.173 1372.86C336.868 1372.95 335.579 1372.52 334.583 1371.68L181.343 1241.07C173.1 1234.05 169.283 1223.12 171.357 1212.49L199.808 1066.69C203.087 1049.88 219.746 1039.23 236.379 1043.3L457.393 1097.35C509.445 1110.08 562.279 1079.51 577.196 1028.05L686.139 652.147C690.315 637.74 704.49 628.631 719.33 630.819L829.662 647.088C834.062 647.737 838.261 649.355 841.958 651.826L1010.55 764.526C1011.95 765.461 1013.79 765.42 1015.15 764.423L1191.97 634.403C1198.42 629.665 1206.49 627.696 1214.39 628.934L1320.98 645.635C1330.73 647.162 1339.1 653.382 1343.38 662.273L1527.63 1045.45C1548.46 1088.76 1597.15 1111.13 1643.58 1098.72L1841.04 1045.92C1860.09 1040.82 1878.79 1055.18 1878.79 1074.9V1216.79C1878.79 1225.03 1875.4 1232.91 1869.42 1238.58Z" fill="#645E5E" stroke="black" stroke-width="6"/>
<path d="M1123.2 1108.67L913.785 1186.37C909.858 1187.82 905.67 1188.44 901.49 1188.18L877.462 1186.69C870.421 1186.25 863.737 1189.83 860.198 1195.93L857.21 1201.09C853.718 1207.11 855.75 1214.82 861.756 1218.34C866.192 1220.94 868.613 1225.96 867.879 1231.05L867.335 1234.82C866.124 1243.22 871.539 1251.15 879.806 1253.09C887.465 1254.88 895.313 1250.96 898.492 1243.77L902.857 1233.89C906.038 1226.69 911.976 1221.07 919.339 1218.28L1133.37 1137.31C1139.52 1134.98 1146.26 1134.74 1152.56 1136.61L1170.57 1141.98C1177.44 1144.03 1184.86 1141.41 1188.92 1135.49L1190.6 1133.06C1194.24 1127.75 1193.48 1120.58 1188.81 1116.16C1184.79 1112.35 1183.61 1106.42 1185.85 1101.36L1187.5 1097.64C1191.28 1089.11 1187.51 1079.11 1179.02 1075.22C1172.84 1072.38 1165.57 1073.48 1160.51 1078.02L1132.8 1102.88C1129.99 1105.39 1126.74 1107.36 1123.2 1108.67Z" fill="white" stroke="black" stroke-width="6"/>
<path d="M1003.63 849.307H1022.48L1057.7 854.21C1074.9 856.606 1090.99 864.105 1103.88 875.74L1106.33 877.948C1114.45 885.276 1120.81 894.349 1124.93 904.484C1130.01 917.018 1131.49 930.725 1129.19 944.056L1118.92 1003.6C1118.76 1004.55 1118.67 1005.52 1118.67 1006.49V1034.15V1040.54C1118.67 1051.7 1108.98 1060.39 1097.89 1059.17C1086.43 1057.91 1076.56 1067.21 1077.13 1078.73L1077.62 1088.37C1077.92 1094.43 1074.57 1100.08 1069.11 1102.73L1064.57 1104.93C1056.72 1108.73 1047.89 1103.44 1046.92 1095.35V1098.48C1046.92 1104.31 1042.49 1109.19 1036.68 1109.74C1030.33 1110.34 1024.74 1105.58 1024.33 1099.21L1024.04 1094.73L1023.29 1103.02C1022.72 1109.28 1016.84 1113.67 1010.68 1112.44C1005.99 1111.5 1002.51 1107.52 1002.2 1102.75L1001.88 1097.71C1001.35 1106.73 990.722 1112.38 982.8 1106.6L977.52 1102.74C973.753 1099.99 971.525 1095.61 971.525 1090.94V1083.85C971.525 1071.48 961.496 1061.45 949.124 1061.45C940.293 1061.45 932.286 1056.26 928.678 1048.2L927.287 1045.09C924.162 1038.11 924.069 1030.15 927.028 1023.1L932.99 1008.89C934.025 1006.42 934.023 1003.64 932.985 1001.18L921.267 973.348C912.466 952.447 911.941 928.983 919.798 907.71C932.76 872.613 966.213 849.307 1003.63 849.307Z" fill="white" stroke="black" stroke-width="6"/>
<path d="M979.829 991.085L982.685 992.246C999.3 999.002 999.309 1022.53 982.699 1029.29L979.362 1030.65C964.674 1036.64 949.195 1023.96 952.169 1008.38L952.65 1005.86C955.017 993.464 968.136 986.331 979.829 991.085Z" fill="black" stroke="black" stroke-width="6"/>
<path d="M1005.14 1059.17L1016.6 1040.78C1020.05 1035.25 1028.16 1035.48 1031.29 1041.19L1040.17 1057.39C1042.79 1062.18 1040.65 1068.18 1035.58 1070.22L1032.97 1071.28C1030.62 1072.22 1027.94 1071.45 1026.45 1069.41L1026.19 1069.05C1023.97 1065.98 1019.31 1066.23 1017.44 1069.53C1016.04 1071.98 1012.96 1072.88 1010.47 1071.57L1008.16 1070.35C1004.1 1068.21 1002.71 1063.07 1005.14 1059.17Z" fill="black" stroke="black" stroke-width="6"/>
<path d="M892.952 1082.17L914.66 1102.14C917.363 1104.63 920.501 1106.6 923.916 1107.95L1134.14 1191.32C1141.08 1194.07 1148.8 1194.11 1155.76 1191.42L1168.35 1186.57C1177.26 1183.13 1187.25 1187.82 1190.29 1196.88L1194.5 1209.45C1196.08 1214.14 1192.58 1219 1187.63 1219C1183.12 1219 1179.71 1223.07 1180.5 1227.51L1182.26 1237.43C1183.65 1245.29 1178.92 1252.95 1171.26 1255.21L1170.75 1255.37C1163.9 1257.39 1156.53 1254.72 1152.57 1248.78L1138.01 1226.94C1134.56 1221.77 1129.6 1217.8 1123.8 1215.57L911.2 1133.95C903.874 1131.14 895.738 1131.31 888.536 1134.42L872.354 1141.43C866.874 1143.8 860.487 1142.28 856.657 1137.7C852.666 1132.93 852.46 1126.04 856.158 1121.04L858.241 1118.22C861.336 1114.03 862.459 1108.71 861.319 1103.63L860.685 1100.81C858.746 1092.16 862.865 1083.3 870.721 1079.21C878.014 1075.42 886.903 1076.6 892.952 1082.17Z" fill="white" stroke="black" stroke-width="6"/>
<path d="M974.627 853.26L966.192 860.547L1098.96 1058.87L1111.7 1054.04L974.627 853.26Z" fill="black" stroke="black" stroke-width="4"/>
<path d="M1072.1 1034.45C1086 1038.57 1099.59 1026.95 1097.66 1012.57C1095.92 999.663 1082.46 991.798 1070.36 996.628C1052.75 1003.66 1053.91 1029.05 1072.1 1034.45Z" fill="black" stroke="black" stroke-width="6"/>
</svg>
