<svg width="41" height="34" viewBox="0 0 41 34" fill="none" xmlns="http://www.w3.org/2000/svg">
<path d="M40.3751 4.64025C38.9139 5.28775 37.3441 5.72525 35.6939 5.923C37.3966 4.90414 38.6705 3.30057 39.2779 1.4115C37.6781 2.36173 35.9273 3.03059 34.1014 3.389C32.8736 2.07801 31.2473 1.20907 29.475 0.91708C27.7027 0.625089 25.8836 0.926386 24.3001 1.77419C22.7166 2.622 21.4573 3.96888 20.7177 5.60573C19.9781 7.24258 19.7996 9.07781 20.2099 10.8265C16.9683 10.6637 13.7972 9.82121 10.9024 8.35358C8.00753 6.88596 5.45362 4.82603 3.4064 2.3075C2.7064 3.515 2.3039 4.915 2.3039 6.406C2.30312 7.74824 2.63366 9.06993 3.26619 10.2538C3.89872 11.4376 4.81368 12.4471 5.9299 13.1925C4.63538 13.1513 3.36943 12.8015 2.2374 12.1723V12.2773C2.23727 14.1598 2.88846 15.9844 4.08047 17.4415C5.27248 18.8986 6.9319 19.8984 8.77715 20.2713C7.57627 20.5963 6.31724 20.6441 5.09515 20.4113C5.61577 22.0311 6.62989 23.4475 7.99554 24.4624C9.36119 25.4772 11.01 26.0396 12.7111 26.0708C9.82336 28.3377 6.25695 29.5674 2.58565 29.562C1.93532 29.5622 1.28553 29.5242 0.639648 29.4483C4.36623 31.8443 8.70424 33.1159 13.1346 33.111C28.1321 33.111 36.3309 20.6895 36.3309 9.9165C36.3309 9.5665 36.3221 9.213 36.3064 8.863C37.9012 7.70971 39.2777 6.28157 40.3716 4.6455L40.3751 4.64025Z" fill="#3477DE"/>
</svg>
