<svg width="376" height="196" viewBox="0 0 376 196" fill="none" xmlns="http://www.w3.org/2000/svg">
<path d="M323.945 138.844L324.748 138.201C324.911 138.071 325.114 138 325.322 138H325.716C326.114 138 326.406 138.374 326.31 138.76C326.185 139.259 326.693 139.68 327.16 139.465L330.873 137.751C331.85 137.3 333.006 137.506 333.767 138.267L336 140.5L336.445 140.945C337.389 141.889 337.679 143.303 337.183 144.541C337.062 144.845 336.896 145.13 336.691 145.386L336.529 145.589C335.562 146.797 334.1 147.5 332.553 147.5H326.768C325.636 147.5 324.55 147.05 323.75 146.25C322.95 145.45 322.5 144.364 322.5 143.232V141.851C322.5 140.681 323.032 139.575 323.945 138.844Z" fill="#725158"/>
<path d="M294 77.8726V74.6569C294 71.0348 295.439 67.5612 298 65L299.339 63.6605C302.855 60.1452 308.669 60.5583 311.652 64.5355C311.884 64.8448 312.137 65.1372 312.411 65.4105L314.261 67.2605C317.868 70.868 322.98 72.5389 328.021 71.7586L355.509 67.5045C359.668 66.8609 363.913 67.8815 367.324 70.3454L369.366 71.8202C370.451 72.6036 371.433 73.5201 372.29 74.5481L372.375 74.6502C374.717 77.4608 376 81.0036 376 84.6622V86.6181C376 93.8396 370.347 99.7975 363.136 100.177L362.837 100.193C359.127 100.388 355.68 102.172 353.378 105.087C350.929 108.19 347.194 110 343.241 110H339.127C334.884 110 330.814 108.314 327.814 105.314L323.596 101.096C320.653 98.1533 316.662 96.5 312.5 96.5C308.338 96.5 304.347 94.8467 301.404 91.9038L298.686 89.1863C295.686 86.1857 294 82.116 294 77.8726Z" fill="#725158"/>
<path d="M158 72.228V57.0053C158 53.1602 159.09 49.4092 161.116 46.1411C163.782 41.8406 168.648 39 173.708 39C177.699 39 181.564 40.6244 184.333 43.4993L188.525 47.853C191.396 50.8344 193 54.8123 193 58.9513V85.3899C193 90.1467 188.711 93.7541 184.025 92.9391C182.386 92.6541 180.885 91.8438 179.747 90.6306L177.255 87.972C175.164 85.7418 172.301 84.3938 169.25 84.2031C162.926 83.8079 158 78.564 158 72.228Z" fill="#725158"/>
<path d="M3.66461 120.564L9.5 113.5C10.7559 112.244 12.9009 113.172 12.8454 114.947L12.6949 119.764C12.6052 122.634 15.5621 124.598 18.1724 123.403L43.8891 111.629C49.9677 108.846 57.1359 110.136 61.8632 114.863L66.5 119.5L71.6606 126.178C73.8255 128.98 75 132.421 75 135.962V144.704C75 149.625 72.7359 154.272 68.8609 157.304L67.8443 158.1C65.0294 160.303 61.5579 161.5 57.9834 161.5H49.7404C45.7273 161.5 41.8608 159.992 38.9075 157.275L35.5925 154.225C32.6392 151.508 28.7726 150 24.7596 150H16.6007C12.0795 150 7.76938 148.087 4.73608 144.735L4.13543 144.071C1.47381 141.129 0 137.303 0 133.336V130.754C0 127.035 1.2958 123.431 3.66461 120.564Z" fill="#725158"/>
<path d="M355.694 134.433L353.324 131.589C352.598 130.718 351.297 130.615 350.444 131.362C349.318 132.347 347.549 131.808 347.163 130.363L346.802 129.008C346.379 127.422 344.648 126.58 343.139 127.226C342.72 127.406 342.353 127.689 342.073 128.048L340.998 129.431C339.703 131.096 339 133.145 339 135.254V138.777C339 140.233 339.387 141.663 340.12 142.92C341.594 145.447 344.298 147 347.223 147H349C352.551 147 355.673 144.646 356.648 141.231L356.693 141.073C356.897 140.361 357 139.624 357 138.884V138.04C357 136.722 356.538 135.446 355.694 134.433Z" fill="#725158"/>
<path d="M136.815 34.8151L136 34L122.657 21.0281C119.671 18.1244 115.632 16.5 111.466 16.5C107.341 16.5 103.337 18.0936 100.358 20.9482L97.6416 23.5518C94.6629 26.4064 90.6967 28 86.5711 28H78.1813C75.4398 28 72.7443 27.2956 70.3533 25.9543L57.1467 18.5457C54.7557 17.2044 52.0602 16.5 49.3187 16.5H40.5118C36.6362 16.5 32.8924 17.9067 29.9757 20.4588L26.5 23.5L23.1863 26.8137C20.1857 29.8143 18.5 33.884 18.5 38.1274V62.2899C18.5 68.4811 23.5189 73.5 29.7101 73.5C32.7696 73.5 35.6961 74.7505 37.8109 76.9614L51.7744 91.5596C54.7928 94.7152 58.9698 96.5 63.3366 96.5H98.3726C102.616 96.5 106.686 94.8143 109.686 91.8137L136.814 64.6863C139.814 61.6857 141.5 57.616 141.5 53.3726V46.1274C141.5 41.884 139.816 37.8157 136.815 34.8151Z" fill="#725158"/>
<path d="M25.5856 107H27.2175H44.4568C47.9062 107 51.2142 108.371 53.6525 110.811L63.1956 120.361C65.6316 122.798 67 126.104 67 129.55V142.517C67 145.296 65.8965 147.961 63.9322 149.927C61.966 151.895 59.2984 153 56.5168 153H54.046C50.5966 153 47.2886 151.629 44.8503 149.189L41.5548 145.891C37.9912 142.325 33.1565 140.322 28.115 140.322H19.1103C16.1623 140.322 13.3352 139.15 11.2514 137.065C9.16947 134.981 8 132.157 8 129.211V124.589C8 121.143 9.36838 117.837 11.8044 115.4L16.3899 110.811C18.8281 108.371 22.1362 107 25.5856 107Z" fill="#64B3A1" stroke="#82CBBA" stroke-width="6"/>
<path d="M38.7742 131.121H27.0606C23.7134 131.121 21 131.014 21 127.667C21 124.319 23.7134 119 27.0606 119H41.3309C47.7756 119 53 124.224 53 130.669V133.959C53 134.86 52.6515 135.727 52.0274 136.377C50.6535 137.808 48.3647 137.808 46.9908 136.377L44.1416 133.409C42.7386 131.947 40.8002 131.121 38.7742 131.121Z" fill="#53A391"/>
<path d="M240.083 189.472L239.923 189.28H239.731V189.504L239.315 189.952L239.283 190.08L239.123 190.24L239.027 190.464L238.227 191.424L236.947 192.512H236.723L236.691 192.64L236.531 192.8L236.499 192.928H236.307L236.179 193.056L235.891 193.152L235.251 193.568L234.771 193.632L233.875 194.048L231.923 194.56L230.355 194.848H229.331L227.795 194.624L227.219 194.656L226.963 194.848L226.899 194.688L226.739 194.624L225.971 194.592L224.499 194.208L223.731 193.792H223.091L222.451 193.152L221.907 193.056L221.587 192.928L221.075 192.512H220.979L220.915 192.352L220.755 192.288L220.339 191.84L220.179 191.808L219.475 191.2L219.219 191.104L219.027 190.816L218.867 190.752L218.803 190.592L218.163 189.856L217.747 189.248L217.651 189.184L217.555 188.896L217.011 188.032L216.339 186.048L215.955 184.064L215.731 182.08V180.064L215.923 178.08L216.403 176.128L216.659 175.2L216.723 174.72L216.915 174.368L216.979 174.112L217.075 173.984L217.779 172.032L218.515 170.144L219.123 168.512L219.251 168.384V168.192L219.827 166.784L220.115 166.4L220.179 166.112L220.339 166.048L220.371 165.504L220.531 165.216V164.96L220.755 164.576V164.352L221.043 163.424L221.203 162.432V162.016L220.819 161.44L220.403 161.216L219.635 161.152L219.059 161.28L218.867 161.44L218.803 161.568L218.867 162.048L219.027 162.208H219.251L219.283 162.432L219.027 163.36L218.387 164.8L218.035 165.216L217.171 167.104L216.755 168.064L216.275 168.832L216.243 169.344L215.859 170.336V170.56L215.635 170.944V171.168L214.963 172.576L214.739 172.672L214.259 172.704L213.779 172.928L213.235 172.992L212.627 172.896L212.595 172.704L212.979 171.808L213.651 169.856L214.419 167.936L214.515 167.712L214.835 167.264L215.251 166.368L216.403 164.704L216.691 164.128L216.851 164.064L217.555 163.392L217.779 163.264L217.843 163.104L217.939 163.072V162.848L218.515 162.592L218.643 162.272L218.547 162.08L218.387 162.016L216.915 162.4L216.531 162.624H216.275L216.083 162.848H215.923L215.859 162.912V163.072H215.635L214.771 163.712L214.099 164.064L213.843 164.096L212.211 164.8H211.795L210.803 165.216H209.459V164.992L208.915 164.896L208.371 164.576V164.352L206.835 163.04L205.907 162.144L204.115 161.376H202.035L201.267 161.952L200.947 162.048L200.755 162.208L200.467 162.624L200.083 162.88L199.603 163.52L199.507 163.808L198.995 164.576V164.832L198.579 165.664L198.547 166.432L198.387 166.656V167.616L198.515 168.672L198.771 169.216V169.92L198.963 170.016L199.219 170.336L199.379 170.4L199.731 171.072L200.051 171.36L200.691 171.392L200.755 171.552L201.011 171.616L201.779 171.584L202.963 171.296L203.475 170.976H203.699V170.784L203.955 170.72L204.083 170.624L204.339 170.56L204.755 170.112L204.979 170.08L205.203 169.92L205.811 169.216V169.056L205.971 168.832V168.608L205.811 168.384L205.459 168.48L205.395 168.608H205.203L203.699 169.856L203.475 169.92L203.123 170.208L202.899 170.304L202.611 170.336L202.163 170.56L201.651 170.656H201.107L200.595 170.528L200.115 170.272L200.051 170.112L199.763 169.92L199.635 169.6L199.443 169.44L199.411 168.928L199.251 168.512V166.496L199.443 166.272L199.475 165.824L199.603 165.312L200.467 163.712V163.488H200.627L200.691 163.424V163.264H200.915V163.072L201.075 163.008L201.139 162.848H201.331V162.688L201.395 162.624H201.555L201.971 162.208L202.963 162.08H203.475L204.115 162.208L204.339 162.4H204.563V162.624H204.755V162.848L204.947 162.944L205.619 163.712L207.059 164.992L207.219 165.056L207.283 165.216H207.507L207.667 165.28L207.731 165.44L207.987 165.504L208.115 165.6L209.107 165.824L210.067 165.92L212.051 165.696L212.627 165.664L212.723 165.472L213.043 165.216H213.267L213.587 165.12L213.715 164.992H213.907V164.8L214.163 164.768L214.643 164.576L215.475 163.936L216.275 163.488L215.763 164.416L215.283 164.992L215.219 165.216L214.995 165.44V165.664L214.867 165.76L214.579 165.824L214.547 166.144L214.483 166.24L214.355 166.272L214.323 166.496L213.491 167.808L213.427 167.904L213.267 167.968V168.192L213.043 168.384L212.179 170.24L211.347 171.808V172.032L210.931 172.672L210.899 172.992L210.707 173.504L210.323 174.048V174.144L209.875 174.784V174.976H209.651L209.619 175.296L209.459 175.424V175.872L209.267 175.968L208.403 177.216L208.371 177.376L208.019 177.696L207.763 178.144L207.507 178.24V178.624L206.675 179.264L206.611 179.488L205.811 180.32H205.587V180.48L205.523 180.544H205.331L205.203 180.768L204.371 181.312L201.587 182.752L201.139 182.912H200.691L200.467 183.136L199.443 183.296L197.427 183.36L196.499 182.912L196.275 182.88L195.571 182.208L195.123 181.632L194.963 181.12L194.931 180L195.347 179.264V179.136L195.411 179.072H195.571L195.763 178.624L196.083 178.272L196.499 177.984L197.075 177.792L197.171 177.696L197.459 177.6L197.907 177.568L198.195 177.888L198.323 178.4V179.424L197.747 180.544L197.715 180.768L197.299 181.216L197.363 181.728L197.427 181.824L197.619 181.888L197.843 181.856L198.675 181.28L199.283 180.608L199.635 179.584L199.699 179.104L199.603 178.048L199.443 177.792L199.411 177.568L199.219 177.376H198.995L198.547 177.088L198.163 176.928L197.715 176.864L197.235 176.928L196.723 177.12L196.403 177.152L196.371 177.28L196.211 177.44L196.179 177.568H195.795L195.155 178.4L194.771 178.784L194.515 179.2L194.323 179.712L194.227 180.448L194.323 181.664L194.611 182.4L195.347 183.136L195.891 183.552H196.019L196.179 183.68L196.691 183.84L196.947 184L197.907 184.192H198.963L200.947 183.904L201.075 183.808L202.003 183.52L202.931 183.136L203.155 182.976L205.107 182.176L206.899 181.216L207.059 181.024L207.891 180.352L209.107 178.976L209.651 178.624V178.4L210.067 178.048L210.931 176.928L210.995 176.48L211.091 176.352L211.155 176.096L211.795 174.976L211.955 174.912L212.019 174.784H212.211L213.043 173.952L213.587 173.888L214.259 173.568L214.547 173.536L214.675 173.6L214.771 173.76L214.579 174.976L214.451 175.008L214.387 175.104L214.355 175.424L214.163 175.68V175.872L213.907 176.096L213.523 178.08L213.331 179.136L213.267 181.184L213.331 183.232L213.491 184.16L213.683 184.384L213.715 184.864L214.035 185.728L214.163 185.856L214.771 187.808L215.155 188.704L215.763 189.504L216.339 190.4L217.779 191.872L217.939 192.064L218.611 192.288L218.739 192.512L219.091 192.832L219.635 193.152H219.891L220.531 193.792H220.979V194.016L222.451 194.624L222.899 194.688L223.091 194.848L223.603 194.944L223.731 194.848L223.923 195.072L224.435 195.104L224.787 195.264L225.779 195.296L226.291 195.424L228.307 195.488H231.859L231.955 195.392L232.211 195.296L232.691 195.264L233.139 195.104L233.555 195.072L233.779 194.848H234.035L234.163 194.624L235.187 194.304L236.947 193.376L237.299 193.024L237.971 192.576L238.547 191.744L239.603 190.656L239.891 190.24L240.115 189.664L240.083 189.472ZM218.003 167.2L218.099 167.136H218.163L217.939 167.36L218.003 167.2ZM218.387 167.968H218.163V167.872L218.227 167.904L218.387 167.968ZM218.419 168.32L218.611 168.384H218.387L218.419 168.32ZM218.163 168.608L218.099 168.768L217.939 168.832L218.163 168.608ZM218.163 168.832L218.099 168.992L217.939 169.056L218.163 168.832ZM217.555 169.056L217.651 169.152L217.619 169.28L217.555 169.216V169.056ZM217.971 169.344L218.035 169.376V169.504L217.939 169.664L217.971 169.344ZM218.163 169.92L218.323 169.792L218.387 169.92H218.163L218.035 169.984L217.939 169.92H218.163ZM217.555 170.464L217.619 170.496L217.779 170.56H217.555V170.464ZM216.467 170.976L216.499 170.88H216.883L216.915 170.976L217.011 170.912L217.139 170.976L217.011 171.04L216.915 170.976L216.691 171.104V171.168H216.883L216.787 171.232L216.915 171.392L216.787 171.488L216.723 171.456L216.691 171.168L216.531 171.264L216.467 171.168H216.627L216.467 170.976ZM217.555 170.976L217.427 171.04L217.331 170.976H217.555ZM217.555 171.168L217.715 170.976H217.779L217.555 171.168ZM216.179 171.104L216.275 171.168L216.179 171.264L216.083 171.168L216.179 171.104ZM215.699 171.456L215.859 171.392L215.795 171.552L215.635 171.616L215.699 171.456ZM216.627 171.392L216.691 171.456V171.616L216.531 171.552L216.467 171.392H216.627ZM216.115 171.712L216.275 171.616L216.083 171.808L216.115 171.712ZM216.403 171.808L216.467 171.872V172.032L216.275 171.904V171.808H216.403ZM216.275 172.448L216.371 172.288L216.627 172.256L216.467 172.448L216.435 172.384L216.275 172.448ZM216.691 172.448L216.851 172.256H216.915L216.691 172.448ZM215.795 172.32L215.859 172.448L215.923 172.32H216.019L216.083 172.448H215.315L215.795 172.32ZM216.083 172.736V172.672H216.147L216.275 172.896L216.083 172.736ZM211.955 173.024L211.795 173.088L211.859 172.96L212.019 172.896L211.955 173.024ZM216.019 173.344L216.083 173.472L216.179 173.312L216.275 173.28L216.211 173.44L216.083 173.504L215.859 173.376L215.699 173.184L215.859 173.088L215.955 173.184L215.859 173.28L216.019 173.344ZM215.795 173.664L215.859 173.728H215.635L215.699 173.632L215.795 173.664ZM216.435 174.24L216.179 174.208L216.083 174.144L215.987 174.208L215.955 174.048L215.859 173.952L215.923 173.888L216.083 174.144L216.211 174.048L216.339 174.112L216.467 174.144L216.435 174.24ZM216.595 174.112L216.467 174.048V173.952L216.499 174.016L216.691 173.952L216.723 174.048L216.595 174.112ZM215.699 174.272L215.731 174.336L215.635 174.368L215.571 174.528H215.507L215.443 174.368L215.571 174.272H215.699ZM215.635 174.784L215.667 174.912L215.443 174.784H215.635ZM216.083 174.976L215.859 174.848V174.784H216.083L216.147 174.816L216.083 174.976ZM216.275 174.976L216.371 174.912L216.467 174.976H216.275ZM215.059 175.168H215.027L214.995 175.04L215.059 175.168ZM215.219 175.2L215.315 175.264L215.283 175.36L215.219 175.424L215.347 175.36L215.507 175.136L215.635 175.2L215.443 175.424V175.872L215.411 175.776L215.283 175.68V175.552L215.219 175.424V175.2ZM215.635 176V175.424L215.731 175.456L215.635 175.872L215.795 175.936L215.859 176.096L215.635 176ZM214.771 175.68L214.867 175.648L214.803 175.904L214.771 175.776V175.68ZM214.995 176.32L214.931 176.16L214.803 176.096L215.123 176.032L215.219 175.776L215.251 176.064L215.315 176.096L215.059 176.16V176.224L215.219 176.32L214.963 176.48H214.867L214.771 176.32H214.995ZM215.507 176.544H215.443L215.315 176.608L215.219 176.544H215.443L215.539 176.448L215.635 176.32L215.507 176.544ZM214.419 176.864L214.579 176.704V176.928H214.419V176.864ZM214.963 176.8L214.995 176.704H215.219L215.091 176.928H215.155L215.219 177.024V177.152L215.283 177.248L215.251 177.312L215.123 177.28L214.995 177.056V176.928L214.611 177.152L214.771 177.376L214.643 177.312L214.579 177.152L214.963 176.8ZM213.907 177.568L214.003 177.632L213.939 177.856L213.907 177.696V177.568ZM214.995 177.728L214.931 177.792H214.771L214.835 177.632L214.995 177.568V177.728ZM213.715 178.624H213.907L213.811 178.72L213.715 178.624ZM214.355 178.848L214.579 179.072L214.451 179.168L214.387 179.136L214.355 178.912L214.291 179.008L214.195 178.976L214.163 178.848H214.355ZM214.355 179.136L214.323 179.232L214.195 179.264L214.291 179.232L214.355 179.136ZM214.995 179.136V179.264H214.771L214.995 179.136ZM214.227 179.68L214.291 179.84L214.355 179.936L214.227 179.872L214.163 179.712L214.227 179.68ZM215.091 180.384L215.059 180.48L214.995 180.544V180.32L215.091 180.384ZM214.771 180.768H214.707L214.579 180.544L214.771 180.704V180.768ZM214.707 181.088L214.771 181.216H214.579L214.707 181.088ZM214.355 181.344L214.483 181.376L214.579 181.44L214.355 181.344ZM214.163 181.664L214.259 181.6V181.792L214.163 181.856V181.664ZM214.195 181.952L214.355 181.856V181.984L214.291 182.048H214.163L214.195 181.952ZM214.771 181.856L214.579 181.984V181.856H214.771ZM214.547 182.4L214.579 182.272H214.643L214.771 182.496L214.675 182.528L214.579 182.688H214.355L214.547 182.4ZM213.971 183.136L213.907 183.072V182.912H214.099L214.163 182.976V183.136H213.971ZM214.867 183.104L214.995 183.136L214.803 183.2L214.771 182.944L214.867 183.104ZM214.355 183.136L214.387 183.008H214.547L214.579 183.136H214.355ZM214.611 183.296L214.675 183.264L214.771 183.36L214.835 183.456L214.579 183.552L214.611 183.296ZM214.771 183.552L214.803 183.648L215.219 183.552L215.155 183.68L214.931 183.84L214.995 183.968L214.899 183.904L214.867 183.712L214.771 183.744L214.707 183.584L214.771 183.552ZM214.579 183.808V183.968L214.419 183.904L214.355 183.744H214.515L214.579 183.808ZM214.227 184.096L214.163 183.968H214.355L214.291 184.096H214.227ZM215.571 183.968L215.443 184.032V183.968H215.571ZM214.931 184.16H215.091L215.059 184.224L214.995 184.384L214.931 184.16ZM215.219 184.608L215.091 184.544L215.155 184.448L215.219 184.384V184.16L215.315 184.288L215.443 184.384L215.155 184.448L215.219 184.608ZM215.539 184.512L215.635 184.608L215.539 184.704L215.443 184.608L215.539 184.512ZM215.315 184.896L215.219 184.832L215.379 184.736L215.443 184.832L215.315 184.896ZM214.931 184.832H214.995V184.896L214.771 185.024L214.931 184.832ZM215.411 185.12L215.155 185.152L214.995 185.248L215.059 185.12L215.443 185.024L215.411 185.12ZM215.603 185.152L215.635 185.248H215.475L215.603 185.152ZM214.355 185.472L214.547 185.28H214.643L214.771 185.248L214.355 185.472ZM215.443 185.664L215.283 185.6L215.219 185.472L215.443 185.6V185.664ZM214.771 186.08L214.835 185.92L214.931 185.856H214.995L214.931 186.016L214.771 186.08ZM215.795 186.176L215.635 186.08H215.859L215.795 186.176ZM214.995 186.976V186.656L215.219 186.528L215.187 186.688L215.059 186.72L215.155 186.784V186.912L215.059 186.976H215.219L215.283 187.072L214.995 186.976ZM216.787 189.184L216.691 189.12H216.915L216.787 189.184ZM217.779 190.976V190.816L217.843 190.944L217.779 190.976ZM218.003 191.072L217.939 190.976H218.163L218.003 191.072ZM218.547 191.296L218.387 191.2H218.611L218.547 191.296ZM220.755 192.928L220.915 192.832L220.979 192.928H220.755ZM223.283 194.08L223.347 194.016H223.507L223.283 194.24V194.08ZM223.891 194.304L223.731 194.24H223.923L223.891 194.304ZM224.307 194.368L224.147 194.432V194.24L224.307 194.304V194.368ZM223.379 194.528L223.283 194.432L223.539 194.464L223.379 194.528ZM226.259 194.944L226.099 194.848H226.323L226.259 194.944ZM226.739 195.264V195.072L226.835 195.168L226.739 195.264ZM227.778 173.536L227.586 173.344V173.12H227.362L226.882 172.512L226.242 172.224L225.25 172.256L225.186 172.416L224.898 172.512L224.098 173.152L223.522 173.76L223.49 173.856L223.298 174.016L222.882 174.208L222.818 172.128L222.722 171.584L222.53 171.232L222.466 171.2L221.794 171.424L221.634 171.648L221.282 172.576L220.834 174.528L220.706 175.328L220.322 176.288V176.8L220.13 177.184L220.098 177.696L219.714 178.976V179.808L219.97 180.16H220.514L220.642 180.096L220.93 179.68L221.25 178.848L221.346 178.72L221.41 178.464L221.506 178.432L221.858 177.664L222.018 177.6L222.082 177.376L222.466 176.992L222.754 176.256L223.362 175.456L223.97 174.816V174.624H224.162L224.866 173.888L224.898 173.792L225.25 173.44L225.666 173.152L226.178 173.088L226.434 173.152L226.594 173.312L226.722 173.344L226.754 173.44L226.978 173.536H227.138L227.17 173.76L227.362 173.984L227.522 174.048L227.586 174.208L227.81 173.984L227.778 173.536ZM222.018 174.4L221.922 174.272L222.018 173.984L222.114 174.144L222.018 174.336L222.114 174.272L222.21 174.304L222.242 174.4H222.018ZM221.282 174.592L221.41 174.624L221.378 174.72L221.218 174.592L221.186 174.432L221.282 174.592ZM221.794 174.624V174.816L221.73 174.784L221.794 174.624ZM222.018 174.912V174.752L222.114 174.912L222.242 175.04L222.018 174.912ZM221.41 175.712V175.264H221.186L221.346 175.168L221.41 175.264L221.602 175.488L221.41 175.712ZM221.954 175.552L221.794 175.488L221.858 175.392L222.018 175.488L221.954 175.552ZM221.346 176.032L221.41 175.904L221.442 176.096L221.346 176.032ZM221.25 176.224L220.994 176.192L220.962 176.096L221.09 176.16L221.282 176.128L221.41 176.32L221.25 176.224ZM221.602 176.32V176.16L221.666 176.096H221.794L221.602 176.32ZM220.898 176.672L220.738 176.768L220.77 176.64H220.93L220.962 176.768L220.898 176.672ZM230.832 176.16L231.024 175.936L231.056 175.68L231.184 175.392L231.28 175.36L231.376 175.04L231.504 174.912V174.752L231.568 174.688H231.696V174.496L231.824 174.464L231.984 174.304L232.144 174.272V174.048L232.752 173.408L232.976 173.344L233.392 172.992L233.552 172.928L233.616 172.8H234.064L234.416 172.576H234.928L235.152 172.672L235.504 173.056L235.568 173.504L235.632 173.6L235.952 173.664L236.016 173.6L235.952 172.64L235.76 172.128L235.312 171.776L235.12 171.712L234.352 171.744L233.2 172.128L233.008 172.352L233.072 172.192L233.168 172.128L232.56 172.352L232.336 172.576H232.208L232.144 172.64V172.8H231.696V172.992L231.376 173.12L231.088 173.408L231.024 173.568L230.768 173.632L230.64 173.92L230.416 174.048L230 174.688H229.84L229.776 174.752V174.912L229.68 174.944L229.456 175.328L229.36 175.36V175.776L228.944 176.16L228.88 176.96L228.752 177.12L228.72 177.856L228.816 177.696L228.912 177.664L228.72 177.888L228.752 178.656L228.816 178.784L228.912 178.912L229.136 178.752L228.912 178.944L229.584 179.808H229.776L230 180.032H229.904L229.936 180.096L230.896 180.224L231.088 180.32V180.448H231.504V180.256H232.144L232.176 180.16L232.336 180.256L232.752 179.808H233.008L233.104 179.712L233.2 179.808V179.584L233.296 179.552L233.392 179.392L233.328 179.296L233.392 179.168V179.392H233.616V179.2L233.712 179.264L233.808 179.168L234 179.104L234.064 178.944L234.48 178.528H234.672L235.312 177.888V177.728L235.376 177.664H235.536V177.472L235.632 177.376L235.696 177.152L235.6 176.992L235.312 177.024L235.12 177.28H234.896V177.472H234.672V177.664H234.48L234.416 177.824L233.968 178.048L233.264 178.592L233.2 178.752L233.104 178.784L233.008 178.944L232.592 179.072L232.56 179.264L232.336 179.168L232.24 179.264L232.144 179.168L231.696 179.392L231.76 179.488L231.728 179.584H231.888V179.808L231.824 179.648L231.696 179.584L231.664 179.392L231.6 179.328L231.28 179.392L231.248 179.296L231.088 179.392L231.024 179.232L230.832 179.168L230.768 179.008L230.64 178.944V178.08H230.416V177.856L230.64 177.888V177.728L230.576 177.664H230.416L230.512 177.632L230.672 177.408L230.64 177.152L230.736 176.704L230.832 176.608L230.672 176.416H230.832V176.16ZM233.2 172.8V172.992L233.136 172.896L233.2 172.8ZM231.248 173.92L231.28 174.016L231.216 173.984L231.12 174.016L231.248 173.92ZM230.832 174.272V174.496L230.768 174.4L230.832 174.272ZM231.504 174.272L231.344 174.368L231.28 174.272H231.504ZM230.64 174.496L230.768 174.592L231.088 174.496L231.024 174.624L230.8 174.688H230.704L230.64 174.624V174.496ZM230.224 174.912L230.416 174.944V174.688L230.64 174.848L230.544 174.816L230.448 174.88L230.544 174.912V175.168L230.416 175.104V174.944L230.32 174.976L230.224 174.912ZM230.768 174.784L230.832 174.688V174.912L230.928 174.944L230.8 175.072L230.64 175.104V174.912H230.8L230.768 174.784ZM230.64 175.552L230.704 175.456H230.768L230.832 175.36L230.736 175.168L230.832 175.104V175.36H231.088L231.056 175.456L230.8 175.552H230.64ZM229.84 175.424L230 175.36V175.488L229.936 175.552H229.776L229.84 175.424ZM230.352 175.52L230.416 175.36V175.552L230.352 175.52ZM230 175.776L230.032 175.648H230.192L230.224 175.776H230ZM229.456 176.064L229.584 175.968L229.424 175.84V175.776H229.584V175.968L229.616 176.032L229.776 175.968L229.712 176.096L229.36 176.16L229.456 176.064ZM230.416 175.776V175.968L230.352 175.936L230.416 175.776ZM230.576 176.288L230.416 176.16H230.64L230.576 176.288ZM229.808 176.672L229.968 176.608L229.84 176.672L229.776 176.8L229.744 176.768L229.616 176.832L229.744 176.416H229.584L229.712 176.32L230 176.416L229.872 176.48L229.776 176.416L229.808 176.672ZM229.264 176.352L229.392 176.384L229.456 176.576L229.36 176.608V176.48L229.296 176.416H229.136L229.264 176.352ZM230.416 176.512V176.608L230.352 176.512L230.384 176.48L230.64 176.608L230.416 176.512ZM230.096 176.736L230.064 176.64L230.16 176.704L230.224 176.832L230.096 176.736ZM229.36 176.832L229.232 176.896L229.136 176.832H229.36ZM230.224 178.08H230.064L230 178.016V177.888L229.84 177.728H229.776V177.888L229.712 177.792L229.776 177.664L229.712 177.6L229.648 177.504V177.6L229.52 177.76L229.36 177.664H229.136V177.472L229.36 177.6V177.664H229.52L229.488 177.568L229.584 177.472L229.648 177.504L229.584 177.44L229.68 177.376L229.776 177.568L230 177.664L229.968 177.472L229.776 177.28V177.024H230V176.896L229.904 176.832L230.096 176.928L229.84 177.184L229.776 177.28L230.032 177.344L230.096 177.536L230 177.664L230.096 177.6L230.224 177.664L230.128 177.792L230.224 178.08ZM235.056 177.664L235.12 177.728V177.888L234.96 177.824L234.896 177.664H235.056ZM229.52 178.528H229.36L229.392 178.304L229.36 178.336L229.328 178.176L229.072 177.92L229.136 177.824L229.36 177.888V178.08L229.424 178.112L229.392 178.304L229.584 178.336V178.464L229.52 178.528ZM230 178.464L229.968 178.656L229.808 178.752L229.968 178.848L230 178.944H230.16L229.776 179.168V178.944H229.616L229.648 179.072L229.584 179.168V178.944L229.648 178.848L229.616 178.752H229.776L229.808 178.528H229.936L230.064 178.24L230 178.08L230.16 178.144L230.224 178.336L230 178.464ZM229.776 178.528V178.08H229.936L229.872 178.176V178.464L229.776 178.528ZM234.064 178.528L233.872 178.624L233.808 178.528H234.064ZM230.224 178.944L230 178.752H230.16L230.224 178.816V178.944ZM233.808 178.944L233.776 179.04L233.616 178.944H233.808ZM230.16 179.264L230.064 179.232L230 179.168L229.776 179.392L229.808 179.232L230 179.168H230.224L230.16 179.264ZM232.752 179.168V179.392L232.688 179.36L232.752 179.168ZM232.752 179.456L232.72 179.584H232.56L232.752 179.456ZM232.24 179.52L232.336 179.584H232.144L232.24 179.52ZM230.48 179.872L230.608 179.808L230.512 179.776L230.64 179.584L230.704 179.744L230.832 179.808L230.736 179.904L230.64 179.808L230.416 180.032L230.48 179.872ZM231.376 179.616L231.504 179.584V179.808L231.376 179.776V179.616ZM232.336 179.808L232.24 179.904L232.144 179.808H232.336ZM231.632 179.872L231.44 180.032H231.312L231.632 179.872ZM231.888 180.032L231.792 180.128L231.696 180.032H231.888ZM248.216 176.32L248.056 176.192L247.8 176.128H246.904L246.552 175.968L246.712 175.2L246.776 174.176L246.744 173.44L246.36 172.512L246.328 172.32L246.136 172.096H245.912L245.816 171.904L245.496 171.648L244.76 171.68L244.28 171.84L243.192 171.872L243.128 171.808V171.648L243.032 171.552L243.128 170.816L243.544 170.144L243.864 169.12L244.28 168.128L244.44 167.584L244.6 167.456L244.632 167.136H244.792L244.856 167.072L245.144 166.08L245.496 165.44L245.528 165.216L245.688 165.024V164.608L245.816 164.448L246.104 163.68L246.136 163.296L245.816 162.88L245.624 162.784L245.048 162.88L244.056 164.672L243.992 164.8V165.024L243 166.848L242.68 167.584V168.032H242.488L242.456 168.32L242.392 168.416L242.264 168.448L241.88 169.376L241.848 169.728H241.688L241.624 169.792L241.592 170.08L241.464 170.24L241.432 170.592H241.176V171.04L240.184 172.832L239.416 174.688L238.84 176.384L239 176.288L239.064 176.384H238.84L238.072 178.272L237.56 179.424L237.528 179.904L237.752 180.256L238.264 180.32L238.488 180.224L238.84 179.808L238.968 179.776L239.064 179.552V179.392H239.128L239.256 179.168L239.48 178.944V178.528H239.704V178.08H239.928L239.96 177.664L240.12 177.472V177.248L240.344 177.024L241.24 175.2L241.752 174.304L242.488 173.376L242.68 173.344L243.16 173.12L243.352 172.96L243.608 172.928L244.44 172.512L245.4 172.576L245.624 172.672L245.752 172.832V173.056L245.144 174.976L244.856 175.968L244.536 176.544L244.44 176.576L244.376 176.768L243.832 176.928L243.768 177.024H243.352L242.52 177.536L242.104 177.728L242.04 177.888L241.848 177.92L241.624 178.08L241.528 179.104L241.56 179.616L241.656 180.032L241.848 180.256H242.04L242.552 180.48L243.096 180.544L243.224 180.512L243.544 180.256L243.864 180.224L243.96 180.16L243.992 180.032L244.12 180L244.28 179.84L244.44 179.808V179.584L244.6 179.488L244.664 179.264L244.824 179.072L244.856 178.944L245.272 178.752L245.304 178.464L245.528 178.048L245.688 177.888V177.664L246.36 177.024L247.416 176.832L247.64 176.736L248.184 176.672L248.28 176.576L248.216 176.32ZM243.992 166.528V166.72L243.896 166.624L243.992 166.528ZM243.768 167.584L243.608 167.68L243.544 167.584H243.768ZM241.624 171.296L241.688 171.232H241.848L241.624 171.456V171.296ZM241.848 171.648L242.008 171.584L242.04 171.648H241.848ZM241.432 171.872L241.368 172.032L241.176 172.096L241.432 171.872L241.304 171.808L241.432 171.648V171.872ZM241.56 171.744L241.624 171.648L241.592 171.872L241.56 171.744ZM241.432 172.32L241.304 172.256L241.432 172.096V172.32ZM241.624 172.384V172.32L241.72 172.416L241.848 172.512L241.624 172.384ZM242.296 172.384L242.264 172.32H242.488L242.296 172.384ZM242.68 172.512H242.552V172.448L242.68 172.32V172.512ZM242.264 172.512L242.456 172.448L242.488 172.512H242.264ZM240.76 172.512L240.856 172.576L240.76 172.736V172.512ZM240.6 173.024L240.76 172.96V173.024L240.536 173.152L240.6 173.024ZM240.536 173.376L240.632 173.472L240.536 173.568V173.376ZM240.76 173.568L240.536 174.016L240.6 173.632L240.696 173.568H240.76L240.824 173.44H240.92L240.984 173.568H240.76ZM240.536 175.328L240.44 175.136L240.504 175.072H240.536V175.328ZM240.344 175.744V175.52L240.408 175.648L240.344 175.744ZM245.496 175.744V175.52L245.56 175.648L245.496 175.744ZM239.064 177.024L239.032 177.152H238.872L238.84 177.024H239.064ZM239.256 177.472L239.224 177.568L239.064 177.664H238.84L238.936 177.6L239.064 177.632L239.16 177.504L239.256 177.472L239.352 177.344L239.256 177.024H239.48L239.576 177.184L239.48 177.248V177.472H239.256ZM239.48 177.664L239.672 177.6L239.704 177.664H239.48ZM243.992 177.664L244.088 177.6L244.184 177.664H243.992ZM244.856 177.888V177.664L244.92 177.792L244.856 177.888ZM243.48 178.464L243.352 178.528L243.288 178.784L243.192 178.912L243.128 179.168H242.936L242.68 179.392H242.488L242.52 178.496L242.904 178.208L242.936 178.08H243.128L243.224 177.984L243.352 177.888H243.768L243.48 178.464ZM239.128 178.464L239.064 178.304L239.16 178.432L239.256 178.528L239.128 178.464ZM238.2 178.528L238.296 178.624L238.264 178.784L238.2 178.752V178.528ZM238.808 178.656H238.648L238.616 178.528H238.84L238.808 178.656ZM244.792 178.624L244.632 178.528H244.856L244.792 178.624ZM238.072 178.88L238.2 178.944H237.976L238.072 178.88ZM242.264 179.168H242.04L242.2 179.072L242.264 179.104V179.168ZM244.184 179.168L244.248 179.072L244.376 179.104L244.44 179.168H244.184ZM238.424 179.584H238.2L238.424 179.456V179.584ZM238.616 179.584L238.712 179.52L238.84 179.584H238.616ZM242.936 180.032H242.68L242.872 179.936L242.936 179.968V180.032ZM253.402 168.096H253.626L253.818 167.968L253.946 167.776V167.2L253.882 167.104L253.658 167.072H253.562L253.274 167.104L253.05 167.2L252.89 167.36L252.858 167.584L252.986 167.872L253.402 168.096ZM254.202 175.968L253.978 176.064L253.53 176.416L253.146 176.864V177.088H252.922L251.642 178.336L251.226 178.272L251.258 177.312L251.45 176.736V176.64L252.058 175.168L252.122 174.688L252.698 173.312L252.794 172.512L252.698 171.968L252.474 171.808H252.282L252.058 171.968L251.898 172L251.674 172.16L251.194 173.056L250.81 174.048L250.394 174.848L250.362 175.168L250.202 175.36L250.01 175.808L249.946 176.416L249.818 176.544L249.338 178.24V179.2L249.562 179.616L249.818 179.904L249.946 179.84L250.138 179.68V179.84H249.946V180.032L250.362 180.256L250.65 180.224L250.874 180.128L251.226 179.84H251.45V179.616L251.866 179.264L252.058 179.2L252.314 178.784L252.986 178.08L253.082 178.048L253.146 177.92H253.338V177.696L253.562 177.6L253.882 177.28L254.202 176.64L254.394 176.416V176L254.202 175.968ZM251.866 173.024L251.994 173.248L251.866 173.216V173.024ZM251.386 173.664H251.45V173.728L251.226 173.856L251.386 173.664ZM251.802 173.856L251.77 173.76L251.866 173.664V173.856L251.898 173.984H251.706L251.642 173.856H251.802ZM251.738 174.496L251.674 174.528L251.642 174.304L251.738 174.496ZM251.002 174.944L251.13 174.976L251.226 175.2V175.36L251.002 175.264V175.36L250.938 175.232L251.066 175.072L251.002 174.944ZM250.65 175.904L250.746 175.936L250.81 176H250.586L250.65 175.904ZM250.298 176.544L250.362 176.64L250.458 176.736L250.426 176.896L250.362 176.864V176.64H250.138L250.298 176.544ZM251.226 176.864L251.162 177.024L251.002 177.088L251.226 176.864L251.13 176.8L251.226 176.64V176.864ZM250.074 177.28L250.362 177.088V177.12L250.81 177.088L250.746 177.184L250.586 177.248L250.362 177.12L250.426 177.344L250.586 177.28V177.504H250.362L250.394 177.6L250.81 177.504V177.696L250.682 177.6L250.362 177.696L250.266 177.408L250.362 177.28L250.234 177.312L250.074 177.472L249.946 177.504L250.074 177.28ZM250.586 179.616H250.362L250.394 179.488L250.554 179.328L250.586 179.2L250.266 179.168L250.17 179.232L250.042 179.456L249.946 179.424V179.616L249.85 179.52L249.946 179.424L250.042 179.392V179.136L250.138 178.976V178.56H250.362L250.138 178.336H250.298L250.202 178.272L250.17 178.144L250.234 178.08L250.362 178.112V177.92L250.17 177.984L250.138 177.92H250.042L250.106 177.856L250.138 177.696L250.298 177.76L250.362 177.92L250.426 177.824L250.586 177.92H250.522L250.65 178.08L250.522 178.464L250.81 178.72V178.336L250.938 178.4L251.002 178.56L251.162 178.464L251.226 178.56L251.13 178.656L251.226 178.752V179.2H251.002L250.81 179.36V179.2L250.65 179.264L250.586 179.616ZM249.946 177.696L250.01 177.824L249.946 177.92V177.696ZM250.842 177.984L251.002 177.92V177.696L251.098 177.76L251.066 177.856L251.002 177.92L251.066 178.08L251.162 178.112H250.81L250.714 178.016L250.746 177.856L250.842 177.984ZM249.722 177.92L249.818 178.016L249.722 178.112L249.658 177.952L249.722 177.92ZM250.554 178.336L250.522 178.176L250.362 178.112V178.336H250.554ZM252.282 178.336H252.218L252.186 178.208L252.282 178.112V178.336ZM250.362 178.976H250.682L250.586 178.752V178.56L250.362 178.752V178.56L250.266 178.656L250.362 178.912H250.234L250.138 178.976L250.298 179.072L250.362 178.976ZM249.722 178.976L249.85 178.752L249.946 178.592V178.752H249.85L249.882 178.816L249.946 178.976H250.106L250.01 179.04L249.946 179.2L249.85 179.136L249.946 178.976H249.722ZM250.938 179.008L251.002 178.752L250.842 178.88L250.81 179.2L250.906 179.04L251.002 179.2L251.098 178.944L250.938 179.008ZM251.45 179.2L251.354 179.136L251.386 179.04L251.45 178.976H251.546L251.45 179.2ZM251.642 179.2L251.802 179.104L251.866 179.2H251.642ZM250.81 179.616V179.424L250.938 179.456L251.002 179.392V179.424L251.322 179.328L251.45 179.424L250.81 179.616ZM264.774 173.376L264.55 172.96L264.166 172.448L263.91 172.352L263.75 172.192L262.726 172.224L261.318 172.832L260.326 172.864L260.166 172.704L260.006 172.192L259.974 171.904L259.782 171.424L259.686 171.36L259.398 171.328L259.174 171.424L258.822 171.776V172L258.662 172.096L258.63 172.32L258.438 172.768L257.894 174.752L257.382 176.736L257.158 177.792L256.422 179.712L256.294 180.096L256.134 180.256L255.91 180.736L255.878 181.024L255.558 181.888L255.398 182.048L254.694 184L254.246 184.96L254.15 184.992V185.44L253.99 185.632L253.798 186.144L253.542 186.592L253.51 186.912L252.454 188.608L252.006 189.248H252.166L252.07 189.312L252.006 189.472L251.91 189.504L251.814 189.728V189.92L251.654 189.984L251.59 190.144L250.95 190.752V190.976L250.79 191.04L250.15 191.872L249.318 192.48L248.39 192.896L247.59 192.992L247.11 192.896L246.918 192.768L246.79 192.576L246.694 192.096L246.758 191.36L247.494 189.76L247.974 189.248V189.056L248.774 188.352L249.606 187.776L250.342 187.52L250.534 187.36H250.95L251.142 187.136L251.238 186.912L251.142 186.688L251.014 186.624L250.566 186.72L249.03 187.36L248.806 187.584H248.614L248.55 187.712L248.102 187.968L247.11 189.056V189.248L246.886 189.28L246.694 189.472V189.664L246.214 190.56L245.958 191.264L245.83 192.448L245.958 192.64L246.118 193.12L246.438 193.504L246.918 193.728L247.846 193.952L248.07 193.92L248.39 193.76L249.062 193.728L249.286 193.568L249.894 193.536V193.344L250.246 193.312L250.534 193.088H250.63L251.174 192.672L251.43 192.576L251.59 192.448L251.494 192.416L251.59 192.256H251.814V192.16L252.198 191.616H252.422V191.392L252.806 190.976L252.87 190.752H253.094V190.56L253.51 190.016V189.92L253.702 189.824L253.862 189.6L253.99 189.216L254.086 189.088L254.15 188.832L254.438 188.352L254.598 187.904L255.59 186.08L255.846 185.664V185.248L256.358 184.384L257.126 182.56L257.862 180.672L258.63 178.816L258.662 178.592L258.822 178.368L258.886 177.888L259.398 176.416L259.462 175.968L259.942 174.88L260.422 174.656L260.742 174.368V174.144H260.966L261.126 174.08L261.19 173.92H261.414L262.214 173.344L262.694 173.088L263.398 172.928L263.942 173.056V174.368L263.398 176.32L263.302 176.704L263.142 176.896L262.886 177.536V177.76L262.79 177.792L262.694 177.952V178.176H262.438V178.368H262.246V178.592L262.182 178.752L262.022 178.816L261.83 179.04L261.446 179.072L260.71 178.752L260.518 178.816L260.23 179.2L260.102 179.68L260.326 180.096L260.934 180.384L261.478 180.352L262.694 179.488L263.206 178.848L263.494 178.592L263.526 178.368L263.75 178.176V177.952L264.166 177.76L264.39 176.896L264.614 176.704L264.966 174.944L264.998 174.4L264.774 173.376ZM259.494 173.056L259.462 173.184H259.27L259.238 173.056H259.494ZM259.046 173.28H259.238L259.206 173.376L259.046 173.28ZM259.43 173.632L259.238 173.696V173.568L259.302 173.504H259.494L259.43 173.632ZM259.494 173.92V173.696L259.558 173.824L259.494 173.92ZM258.822 174.144L258.886 173.984L258.982 173.92H259.046L258.822 174.144ZM256.07 182.88L256.134 182.784L256.23 182.816L256.294 182.88H256.07ZM255.718 184.256L255.654 184.128H255.846L255.718 184.256ZM255.206 184.992L255.046 185.248L255.078 185.184L254.982 184.8L255.206 184.992ZM255.398 184.928V184.8H255.654L255.398 184.928ZM255.398 184.992L255.526 185.056L255.462 185.184L255.398 185.248V184.992ZM255.654 185.44H255.206L255.27 185.312H255.334L255.398 185.44L255.462 185.344L255.558 185.408L255.654 185.44ZM254.79 185.632L254.854 185.664H254.79L254.982 185.856L254.854 186.016L254.758 185.984V185.76L254.79 185.664H254.598L254.662 185.6L254.534 185.44L254.79 185.632ZM254.342 186.08L254.438 186.048V186.304L254.342 186.272V186.08ZM253.958 186.496L253.926 186.368V186.272L254.022 186.24L253.958 186.496ZM255.206 186.464H254.982L254.95 186.56L254.886 186.528L254.79 186.272L254.886 186.336V186.4L254.982 186.464V186.272L255.206 186.4V186.464ZM254.79 186.688L254.886 186.592L254.982 186.688H254.79ZM254.502 187.104L254.406 187.008L254.342 186.912H254.15L254.086 186.784H254.278L254.342 186.912H254.79L254.502 187.104ZM254.47 187.616L254.342 187.584L254.534 187.36H254.246L254.438 187.296L254.534 187.36L254.47 187.616ZM253.19 188.128L253.318 188.192H253.094L253.19 188.128ZM253.51 188.832L253.446 188.992H253.382L253.318 188.832L253.414 188.768L253.51 188.832ZM253.51 189.312L253.382 189.344L253.318 189.248H253.094L253.158 189.12H253.254L253.318 189.248H253.446L253.51 189.184V189.056L253.574 189.184L253.51 189.312ZM253.254 189.6L253.094 189.664L252.934 189.6L252.87 189.504V189.664L252.71 189.536L252.614 189.472L252.87 189.504V189.472L253.094 189.632L253.158 189.536L253.318 189.472L253.254 189.6ZM253.062 190.08L252.966 190.112L252.902 190.368V190.144H252.87V189.984L252.934 189.92H253.094L253.062 190.08ZM252.902 190.144L252.966 190.112H252.902V190.144ZM252.198 190.752L252.294 190.688L252.422 190.752H252.198ZM252.614 190.976L252.55 190.88L252.614 190.752V190.976ZM251.75 191.104L251.59 191.168L251.654 191.04L251.814 190.976L251.75 191.104ZM250.726 192.256V192.16L250.79 192.192L250.95 192.256H250.726ZM270.271 172H270.143L269.631 172.192L269.183 172.448L268.671 172.64L268.255 173.056H267.999V173.184L267.487 173.888L267.391 173.92V174.144L267.071 174.496L266.975 174.72L266.943 175.008L266.623 176.032L266.527 177.056L266.655 178.08L266.815 178.752L267.007 178.976L267.167 179.072L267.263 179.456L267.807 179.936L267.903 179.84L268.127 180.032L268.383 180.064L268.639 179.968L268.575 180.032L268.607 180.096H269.567L270.399 179.776L271.199 179.072L271.615 178.816L271.999 178.432L272.511 177.568L272.735 177.344L272.831 176.864L272.799 176.608L272.735 176.512L272.095 177.184L272.063 177.344L271.743 177.696L271.455 178.208H271.199L271.167 178.304L270.303 178.944L269.727 179.264H269.535L269.407 179.392L268.959 179.488L268.703 179.392L268.511 179.232L268.319 178.784L268.127 177.728L268.095 177.184L268.159 176.672L268.735 175.648L268.927 175.488L269.855 175.2L271.647 174.816L272.287 174.592L272.479 174.368L272.767 173.664L272.799 173.376L272.735 172.896L272.543 172.288L272.415 172.128L271.903 171.872L271.423 171.808L270.271 172ZM271.871 172.096V172L271.967 171.968L271.903 172.224L271.871 172.096ZM269.855 172.48L269.951 172.448V172.544L270.079 172.64L269.919 172.576L269.855 172.48ZM272.031 172.576L272.063 172.64H271.871L272.031 172.576ZM269.951 173.504L270.399 173.056L271.359 172.736H271.807L271.999 173.12V173.376L271.935 173.568L271.615 173.984L271.199 174.368L270.719 174.528L269.951 174.624L269.727 174.56L269.503 174.24L269.535 173.92L269.855 173.536L269.951 173.504ZM268.511 172.864H268.671L268.447 173.056V172.928L268.511 172.864ZM269.311 173.312H269.535L269.407 173.376L269.311 173.312ZM269.087 173.792V173.728L269.151 173.856L269.055 173.984L268.927 174.016L268.863 173.92L269.087 173.792ZM268.703 174.72L268.863 174.784H268.671L268.703 174.72ZM268.095 175.072L267.999 175.008V174.848L268.223 175.008L268.255 175.2L268.095 175.072ZM267.231 176.032L267.391 176.064H267.167V175.968L267.231 176.032ZM267.807 176.064H267.999L267.967 176.128L267.807 176.064ZM281.475 164.64H281.283L280.771 164.736L280.547 164.864L280.195 165.28L279.363 167.136L278.499 168.96L277.539 170.816L277.411 171.04L277.219 172.128L276.867 172.576L276.803 172.96L276.483 173.312L276.387 173.536L276.355 173.824L275.491 175.616L274.723 177.504L274.563 178.976L274.627 179.52L274.787 179.968L275.203 180.416L275.971 180.544L276.931 180.448L277.315 180.192L277.411 180.032H277.635L278.275 179.392V179.168H278.499L278.819 178.848L279.459 177.728L279.427 177.536L279.171 177.28L279.011 177.344L278.627 177.984L278.147 178.208L278.051 178.304V178.528H277.859L276.963 179.36L276.515 179.456L276.291 179.424L276.163 179.232L276.131 178.944L276.227 178.656L276.355 178.528L276.387 178.208L276.451 178.112L276.579 178.08L276.835 177.152L277.187 176.192L277.411 175.744V175.328L277.603 175.104L277.635 174.88L277.795 174.656L278.563 172.704L278.979 171.744L279.459 170.88L279.747 169.888L280.643 168.032L281.411 166.144L281.699 165.6V164.864L281.539 164.8L281.475 164.64ZM278.339 170.688L278.499 170.624L278.435 170.752L278.275 170.816L278.339 170.688ZM292.808 176.576L292.648 176.48L292.328 176.704L292.296 177.024H292.072V177.216L291.016 178.272L290.952 178.464L290.76 178.528L290.344 178.944H290.088L289.704 179.136H288.776L288.424 178.816L288.232 178.432V177.216L288.456 177.024V176.576L288.904 175.616L289.16 174.72L289.288 174.688V174.24L289.48 173.952L289.512 173.408L289.704 172.96V172.544L289.48 172.192L288.968 172.032L288.744 172.096L288.232 172.512L288.2 172.64L288.04 172.832L287.912 173.12L287.88 173.376L287.656 173.472L287.176 172.864L286.504 172.512V172.384L286.28 172.352L285.96 172.192H285.448L284.488 172.512L283.56 172.96L282.824 173.6L281.608 175.2L281.224 175.808L281.16 176.064L281 176.352V176.8H280.776L280.84 176.96L281 177.024L280.872 177.152L280.776 177.376V178.08L281.128 179.008L281.224 179.136L281.288 178.976L281.384 178.944L281.352 179.04L281.224 179.136L281.256 179.36H281.384L281.352 179.456L281.448 179.68L281.832 179.808L282.12 180.064L282.568 180.224L283.112 180.288L284.36 180.16L284.84 179.968L284.904 179.84L285 179.808L284.84 179.584L285.064 179.68L285.288 179.52L285.96 178.784L286.088 178.72L286.28 178.272L286.728 177.856L287.112 178.496L287.272 178.944L287.368 179.008L287.4 179.136H287.592V179.36H287.656L287.784 179.584H288.008V179.808H288.232L288.68 179.968L289.704 179.872L290.696 179.552L291.112 179.264L291.272 179.008L291.432 178.944L292.296 178.08V177.856H292.456V177.632L292.776 177.28L292.904 177.024V176.832L292.808 176.576ZM288.744 172.64L288.84 172.736V172.512H288.936L288.904 172.576L288.84 172.736H288.68L288.744 172.64ZM287.592 174.4L287.528 174.464H287.4V174.912L287.176 175.04L287.08 175.2L287.144 175.296H286.952L286.888 175.456L286.728 175.52V175.968H286.504L286.472 176.288L286.312 176.448L286.28 176.576L286.088 176.8L285.96 177.12L285 178.08V178.272L284.872 178.336L284.776 178.656L284.616 178.72V178.944L284.296 178.976L284.168 179.136L283.752 179.168L283.656 179.232H283.496L283.112 179.008V178.944L282.952 179.008L282.92 179.104L282.664 178.944L282.728 178.784L282.92 178.72L282.696 178.464V176.928L282.856 176.704L283.208 175.68L283.784 174.688H283.848L283.976 174.464V174.24H284.168V174.016H284.392V173.792L284.84 173.408H285L285.064 173.248L285.512 172.992L286.504 172.96V173.184H286.728L286.792 173.344L286.952 173.408V173.6H287.176L287.208 174.112L287.272 174.208L287.4 174.24V174.464L287.496 174.368L287.592 174.24V174.4ZM288.392 173.248L288.456 173.184V173.408L288.36 173.344L288.392 173.248ZM289 173.408L289.064 173.472V173.6L288.904 173.536L288.84 173.408H289ZM289.288 173.408L289.384 173.44L289.288 173.6V173.408ZM283.784 173.6V173.792L283.624 173.728L283.56 173.6H283.784ZM288.008 174.016L287.976 174.144H287.816L287.784 174.016H288.008ZM288.52 174.272L288.456 174.24V174.016L288.552 174.112L288.52 174.272ZM288.744 174.144L288.84 174.016L288.68 174.24L288.744 174.144ZM288.744 174.592L288.84 174.464L288.904 174.368L289 174.4L289.064 174.464H288.84L288.808 174.688H288.68L288.744 174.592ZM288.456 174.464L288.392 174.624L288.232 174.688L288.456 174.464ZM288.744 174.944L288.84 174.912L288.808 175.008L288.68 175.104L288.744 174.944ZM282.408 175.104H282.472L282.248 175.296L282.408 175.104ZM282.056 175.296L281.992 175.456L281.832 175.52L282.056 175.296ZM281.896 176.032L281.992 175.968H282.056L281.832 176.192L281.896 176.032ZM287.528 176.128L287.432 176.192L287.464 176.064L287.4 175.968H287.528V176.128ZM287.848 176.416L287.784 176.544L287.752 176.32H287.912L288.008 176.352L288.104 176.224L288.232 176.192L288.008 176.352L287.848 176.416ZM281.896 176.416L281.992 176.352H282.056L281.832 176.576L281.896 176.416ZM287.112 176.48L287.08 176.384L287.176 176.352V176.448L287.4 176.352V176.576L287.112 176.48ZM282.216 176.48L282.056 176.576L282.12 176.416L282.216 176.48ZM288.168 176.736L288.008 176.8L288.232 176.576L288.168 176.736ZM281.736 176.96L281.768 176.864L281.832 176.8V177.216L281.96 177.312L282.248 177.216L281.832 177.632H281.992L281.864 177.728L281.832 177.824V177.472L281.768 177.408H281.608L281.832 177.216H281.608L281.832 177.024L281.736 176.96ZM281.384 177.152L281.448 177.088L281.608 177.024L281.544 177.184L281.448 177.216L281.544 177.28L281.512 177.376L281.384 177.408V177.152ZM281.224 177.216L281.288 177.312L281.224 177.408V177.216ZM286.952 177.344L286.888 177.408H286.76L286.824 177.664L286.728 177.632V177.408H286.504L286.568 177.28H286.664L286.728 177.376V177.248L286.952 177.216V177.344ZM287.048 177.28L287.112 177.216H287.176V177.408L287.048 177.28ZM282.248 177.632L282.184 177.44L282.248 177.408L282.344 177.472L282.312 177.568L282.248 177.632ZM287.496 177.664L287.4 177.632V177.408H287.496V177.664ZM281 177.632L281.064 177.536L281.16 177.568L281.224 177.632H281ZM287.24 177.76L287.176 177.856L287.08 177.696L287.112 177.632L287.272 177.6L287.24 177.76ZM281.384 177.76L281.608 177.632L281.544 177.792L281.448 177.856H281.384V177.76ZM282.056 178.272H281.896L281.992 178.368L281.96 178.464L281.832 178.528V178.432L281.768 178.464L281.608 178.304H281.704L281.8 178.272L281.736 177.984L281.832 178.08V178.272L281.896 178.08H282.056L281.992 177.76L282.056 177.632V177.792L282.12 177.856H282.248L282.216 177.952H282.12L282.248 178.08L282.184 178.272H282.248V178.528L282.12 178.496L282.056 178.272ZM281.832 177.856L281.672 177.952L281.608 177.856L281.32 178.08H281.224L281.256 177.92L281.608 177.856H281.832ZM282.056 177.92L282.12 177.952L282.056 177.856V177.92ZM281.8 178.272L281.832 178.432V178.272H281.8ZM281.608 178.72H281.384L281.224 178.944L281.288 178.752L281.384 178.72L281.608 178.528L281.544 178.464L281.608 178.336L281.672 178.496L281.768 178.528H281.608V178.72ZM285.544 178.784L285.512 178.88L285.448 178.944V178.72L285.608 178.528H285.672L285.448 178.72L285.544 178.784ZM282.312 178.72L282.248 178.816V178.72L282.344 178.656L282.472 178.72H282.312ZM281.768 178.912L281.736 178.848L281.832 178.72L281.928 178.688V178.848L281.992 178.944L281.768 178.912ZM282.056 178.944V178.72L282.12 178.752L282.056 178.944ZM282.728 178.944L282.824 179.008L282.952 178.912L282.984 178.784L282.92 178.72L282.888 178.848L282.728 178.944ZM282.472 178.944V179.136H282.312L282.248 178.944H282.472ZM281.832 179.136L281.928 179.072L282.056 179.136H281.832ZM282.856 179.296L282.664 179.36L282.728 179.2L282.92 179.136L282.856 179.296ZM282.472 179.52L282.152 179.584L282.248 179.36L282.376 179.456L282.472 179.328V179.36L282.568 179.328L282.664 179.2L282.472 179.52ZM283.752 179.488H283.592L283.56 179.36H283.784L283.752 179.488ZM284.776 179.52L284.616 179.584L284.68 179.424L284.84 179.36L284.776 179.52ZM282.792 179.776V179.712L282.92 179.808L282.792 179.776ZM283.336 179.968L283.24 179.84L283.336 179.808V179.968ZM303.25 171.584L303.09 171.52L302.546 171.68H302.29L302.226 171.84L302.066 171.904L301.298 172.64L301.01 173.152L300.882 173.12L300.338 172.416L300.146 172.32L299.09 172.352L298.578 172.448L297.618 172.896L296.018 174.112L295.282 174.784L294.706 175.712H294.61L294.258 176.64L294.162 177.088V178.016L294.61 178.912H294.674L294.866 179.296L295.058 179.36L295.186 179.552L295.826 179.936L296.338 180L296.914 179.904L297.042 180.064V180.224H296.978L297.042 180.256L296.946 180.544L296.754 180.864L296.722 181.344L296.498 181.856L296.466 182.112L296.53 182.144L296.37 182.368L296.338 182.784L296.114 182.976L295.794 183.968L295.41 184.8L295.25 184.896L294.77 186.144L294.482 186.528L294.386 186.752L294.162 186.912L294.13 187.04L294.258 187.104L293.586 187.936L293.106 188.768L292.978 189.088L292.274 189.824L292.21 189.952L292.018 190.016L291.922 190.208L290.738 191.328L290.098 191.552L290.066 191.648L289.842 191.712H289.458V191.968L289.234 191.712L289.074 191.776L289.042 191.904L288.946 191.744L288.722 191.68L288.594 191.712L288.242 191.328L288.274 190.56L288.85 189.408L289.17 189.056L289.394 188.928L289.458 188.768L289.682 188.544H289.906L290.354 188.128L290.866 188.064L292.754 187.296L293.138 187.2L293.362 186.784L293.298 186.624L292.306 186.656L291.858 186.816L291.602 186.848L290.706 187.296L290.162 187.488L289.682 187.904H289.458L289.298 187.968L289.106 188.256L288.85 188.352L288.402 188.704L288.242 188.768V188.992L288.018 189.056L287.954 189.184L288.178 189.28L288.146 189.344L288.018 189.376L288.082 189.312L287.954 189.184L287.346 190.4L287.314 190.912L287.218 191.264L287.41 191.936L287.954 192.384L288.178 192.448L288.242 192.608H288.402L288.786 192.832H289.042V192.608H289.138L289.074 192.672L289.042 192.832H289.682V192.608L289.842 192.672L289.906 192.832L290.098 192.64L290.61 192.544L290.706 192.448L290.962 192.384V192.192L291.154 192.256L291.378 192L291.666 191.968L291.762 191.904L291.826 191.712L292.274 191.552V191.392L292.338 191.328H292.498L293.138 190.56L293.298 190.464V190.272L293.106 190.464L293.202 190.304L293.298 190.272H293.746V190.016L293.938 189.824V189.6H294.002L294.13 189.376L294.706 188.992H294.802L294.866 188.768L295.25 188.352V188.128L295.442 187.904V187.68L295.602 187.616L295.858 187.232V187.04L296.914 185.312L297.138 184.864L297.298 184.704L297.49 184.128L297.586 184.096V183.84L297.746 183.776L297.81 183.52V183.168H298.002L298.642 181.792L298.866 181.504L298.93 181.056L299.09 180.864V180.64L299.282 180.224H299.09L299.122 180.096H299.282L299.314 180.16L299.282 180.224L300.146 178.56L300.978 176.64L301.906 174.752L302.93 173.024L303.346 172.096L303.25 171.584ZM303.09 172.48L302.93 172.544L302.994 172.384L303.09 172.32H303.154L303.09 172.48ZM299.282 176.032L298.738 176.96L298.13 177.824L297.618 178.368L296.722 178.88L296.498 178.912L296.242 178.752L296.082 178.72L295.858 177.216L296.146 176.864L296.53 176.16L296.562 175.968L297.106 175.04H297.17V174.88L297.874 174.144L298.674 173.472L299.122 173.216L299.57 173.056L300.082 173.184L300.37 173.6L300.146 174.688L300.05 174.752V174.816L299.954 174.88V175.04L299.73 175.296V175.488L299.506 175.68V175.968L299.282 176.032ZM297.234 173.92L297.33 173.952L297.394 174.016H297.17L297.234 173.92ZM297.17 174.24L297.074 174.304L296.978 174.24H297.17ZM300.786 174.368L300.722 174.432H300.594L300.786 174.24V174.368ZM296.146 174.752H296.274L296.338 174.88H296.082L296.146 174.752ZM296.53 174.88L296.626 174.976L296.53 175.04V174.88ZM296.53 175.296V175.424L296.466 175.488H296.338L296.37 175.392L296.53 175.296ZM300.466 175.392L300.434 175.552L300.37 175.392V175.296L300.466 175.392ZM295.954 175.424L296.082 175.488H295.858L295.954 175.424ZM300.37 175.712V175.968L300.274 175.904L300.306 175.776L300.37 175.712ZM294.866 175.84L294.994 175.904L295.058 175.968H294.802L294.866 175.84ZM300.53 176.288L300.37 176.352V176.16L300.53 176.224V176.288ZM295.538 176.288L295.666 176.352H295.442L295.538 176.288ZM299.954 176.352H299.73L299.762 176.288L299.954 176.352ZM295.09 176.512L295.058 176.608L294.93 176.544L295.058 176.352L295.154 176.416L295.09 176.512ZM295.25 176.352L295.346 176.544L295.25 176.608V176.352ZM295.442 176.608L295.538 176.768L295.442 176.8V176.608ZM294.802 176.8L294.77 176.864L294.61 176.8H294.802ZM299.506 177.408L299.442 177.216L299.506 177.056L299.666 176.992L299.57 176.96L299.506 176.8L299.73 176.992L299.506 177.28V177.408ZM300.242 176.864L300.146 176.8H300.37L300.242 176.864ZM295.538 177.088L295.282 177.248L295.25 177.12V176.992H295.058L295.026 177.12H294.834L294.802 176.992L294.93 176.896V176.96L295.058 176.992L295.154 176.928L295.25 176.992L295.538 177.088ZM300.146 177.216L300.242 177.312L300.146 177.408V177.216ZM295.058 177.408L294.93 177.6H294.866L294.802 177.248L294.898 177.376L295.058 177.408ZM295.442 177.408L295.538 177.344L295.666 177.408H295.442ZM295.538 177.536L295.666 177.6H295.442L295.538 177.536ZM299.314 177.6L299.41 177.536L299.506 177.6H299.314ZM294.61 177.6H294.738L294.802 177.76V177.856L294.674 177.792L294.61 177.6ZM298.45 177.6H298.674L298.642 177.76H298.482L298.45 177.6ZM300.146 177.856L300.21 177.728L300.274 177.792L300.37 177.856H300.146ZM298.962 178.048V177.888L299.09 177.856V178.08L298.962 178.048ZM295.314 178.368L295.25 178.304V178.176L295.186 178.272L294.802 178.08L294.962 178.016L295.122 178.144L295.378 178.08L295.442 178.144V178.272L295.538 178.176L295.666 178.08V178.208L295.602 178.272H295.442L295.314 178.368ZM299.314 178.272L299.41 178.24V178.432L299.314 178.496V178.272ZM299.73 178.496L299.954 178.272L299.89 178.432L299.73 178.496ZM300.018 178.496H299.954L300.05 178.4L300.146 178.272L300.018 178.496ZM299.026 178.336L299.09 178.496H298.994L299.09 178.56V178.72L298.93 178.656L298.866 178.56V178.496L298.738 178.464L298.77 178.368L298.898 178.304L299.026 178.336ZM295.186 178.528L295.25 178.496V178.72L295.058 178.912V178.784L295.122 178.72H295.25L295.186 178.528ZM295.73 178.624L295.666 178.72V178.496L295.73 178.624ZM297.714 178.56L297.746 178.496H297.81V178.72L297.714 178.56ZM298.546 178.624L298.674 178.72H298.514L298.45 178.656V178.496L298.546 178.624ZM295.634 178.752L295.666 178.88L295.602 178.816L295.474 178.72L295.634 178.752ZM296.082 178.912L295.858 178.784V178.72L296.082 178.848V178.912ZM297.746 179.264L297.81 179.136L297.554 179.04L297.522 178.944L297.618 178.848L297.778 178.976L297.81 179.136L297.874 179.168L297.746 179.328L297.586 179.36L297.522 179.264L297.586 179.136V179.328L297.746 179.264ZM299.09 179.136L299.026 179.04L298.866 179.136V179.296L298.802 179.36H298.674L298.738 179.2L298.866 179.136L298.674 178.912L298.45 179.136L298.546 179.296L298.45 179.36V179.584L298.258 179.552L298.45 179.36H298.194L298.002 179.104V178.912H298.194L298.29 178.976L298.226 179.264L298.194 179.36L298.45 179.136L298.514 178.976L298.61 178.912H299.09L299.186 179.072L299.09 179.136ZM299.378 179.136H299.314L299.506 178.912L299.378 179.136ZM295.346 179.232L295.25 179.136H295.058L295.154 179.04L295.25 179.136H295.442L295.346 179.232ZM295.858 179.36L295.602 179.328L295.57 179.264L295.666 179.136V179.232L295.762 179.2L295.858 179.136V179.36ZM298.002 180V179.584L298.098 179.648V179.936L298.002 180ZM298.45 179.776H298.674L298.61 179.872L298.45 179.776ZM299.314 180V179.776L299.378 179.904L299.314 180ZM298.194 180.224L298.258 180.064L298.386 180H298.45L298.194 180.224ZM298.866 180.224L298.642 180.032L298.738 180H298.866V180.224ZM298.514 180.128L298.61 180.16L298.674 180.224H298.45L298.514 180.128ZM297.938 180.288V180.352L297.81 180.416V180.224L297.938 180.288ZM298.194 180.64H297.842L298.002 180.448V180.64L298.098 180.416H298.194L298.258 180.288H298.386L298.45 180.416L298.29 180.384L298.194 180.64ZM298.578 180.736L298.45 180.64L298.674 180.416L298.738 180.672L298.578 180.736ZM297.842 180.896L297.81 180.768V180.64L297.906 180.736L297.842 180.896ZM297.394 180.864H297.586L297.554 180.992H297.458V181.152L297.394 181.28V181.056L297.458 180.992L297.394 180.864ZM297.586 181.28V181.504H297.458L297.586 181.28ZM297.81 181.728L297.714 181.504V181.344L297.81 181.28V181.728ZM297.17 181.728L297.074 181.568L297.138 181.408L297.17 181.504V181.728ZM298.002 181.504L298.098 181.408L298.194 181.504H298.002ZM297.01 181.824L296.978 181.728L297.138 181.824L297.17 181.92L297.01 181.824ZM298.162 182.016L298.002 181.92H298.194L298.162 182.016ZM297.266 182.208L297.234 182.464L297.17 182.528V182.144L297.266 182.208ZM297.394 182.336L297.49 182.272L297.586 182.336H297.394ZM297.65 182.72L297.586 182.592V182.528L297.618 182.464L297.778 182.624L297.81 182.784L297.65 182.72ZM296.754 182.784L296.914 182.656L296.978 182.784H296.754ZM297.17 182.784L297.33 182.656L297.394 182.784H297.17ZM296.754 183.168V183.072L296.818 183.136L296.978 183.168H296.754ZM296.754 184.896V184.704L296.85 184.864L296.754 184.896ZM295.858 185.12L295.922 184.96L296.018 184.896H296.082L295.858 185.12ZM296.338 185.312L296.37 185.248L296.53 185.312H296.338ZM295.25 186.208L295.186 186.112L295.25 185.984V186.208ZM294.802 186.208V186.432L294.738 186.24L294.802 186.208ZM295.442 186.208L295.538 186.304L295.506 186.464L295.442 186.432V186.208ZM294.61 186.848L294.706 186.976L294.642 187.104L294.61 187.232L294.514 187.104L294.61 186.848L294.514 186.912L294.418 186.848H294.61ZM295.442 187.04L295.41 187.008L295.57 186.944L295.666 187.04H295.442ZM295.602 187.392L295.442 187.456V187.296L295.506 187.232H295.666L295.602 187.392ZM294.802 187.904L294.61 188L294.546 187.936L294.61 187.68L294.674 187.84L294.802 187.904L294.898 187.84H295.058V187.744L295.122 187.776L295.25 187.904H294.802ZM294.386 188.192L294.418 188.224V188.352H294.13L294.386 188.192ZM294.514 188.512L294.418 188.544L294.61 188.352L294.514 188.512ZM293.938 188.768V188.544L294.002 188.672L293.938 188.768ZM294.418 188.992L294.546 188.768H294.61L294.418 188.992ZM294.162 189.216L294.13 189.088V188.992L294.258 188.96L294.162 189.216ZM288.306 189.504L288.402 189.376L288.242 189.6L288.306 189.504ZM293.746 189.824V189.6H293.554L293.49 189.536V189.376L293.682 189.44L293.746 189.536V189.6L293.81 189.728L293.746 189.824ZM288.402 190.016L288.338 189.92L288.402 189.824V190.016ZM292.69 190.272L292.594 190.112V189.952L292.498 189.824L292.594 189.856L292.69 190.176V190.272ZM287.954 190.272V190.016L288.082 190.08L287.954 190.272ZM292.274 190.688H292.018L292.21 190.592L292.274 190.624V190.688ZM292.53 191.168L292.498 191.008V190.912L292.594 191.008L292.53 191.168ZM291.378 191.328L291.41 191.2H291.57L291.602 191.328H291.378ZM291.378 191.712L291.282 191.904L291.378 191.968L291.282 192.032L291.218 191.936L291.282 191.776L291.474 191.648L291.602 191.712H291.378ZM290.098 191.84L289.906 191.712H290.098V191.84ZM287.762 192.192V191.968L287.826 192.16L287.762 192.192ZM288.85 192.192L288.946 192.096L289.042 192.192H288.85ZM290.578 192.384L290.354 192.256V192.192L290.578 192.32V192.384ZM310.383 173.184L310.223 172.928L309.103 172L308.623 171.808L307.375 171.68H307.311L306.767 171.776L305.903 172.288L305.583 172.416L305.263 172.736L305.071 172.832L304.879 173.056L304.687 173.152L304.335 173.568L304.239 173.6L303.535 174.4L303.151 175.328L303.023 175.52V176.032L302.863 177.056V178.304L303.023 178.496L303.055 178.944L303.215 179.168L303.247 179.328L303.375 179.392L303.439 179.552L303.631 179.616L303.695 179.808L303.855 179.872L303.919 180L304.943 180.256L306.191 180.192L306.415 180.032L306.895 180L307.311 179.584L307.503 179.552L307.567 179.392L307.727 179.328L307.919 179.136L307.983 178.976L308.399 178.752L308.591 178.496L309.007 178.304L309.103 177.984L309.327 177.792L309.551 177.472L309.583 177.312L309.935 176.896L310.191 176.416L310.447 175.392L310.575 174.4V173.92L310.383 173.184ZM308.847 175.488L308.591 176.416L308.111 177.376L307.119 178.528L306.351 179.136L305.903 179.36L305.135 179.424L304.911 179.296L304.783 179.072L304.655 178.528L304.751 177.024L305.103 176L305.167 175.488L305.423 174.976L305.615 174.048L305.999 173.696L306.063 173.408L306.191 173.184L306.447 173.024V172.96H306.639V172.736H306.895L307.151 172.576L307.503 172.544L307.599 172.448L307.919 172.416L308.143 172.544L308.463 172.576L308.591 172.736L308.687 172.768L308.783 172.992V173.152L308.943 173.504L309.007 174.464L308.847 175.488ZM304.975 173.92H305.135L305.167 174.048H304.943L304.975 173.92ZM304.271 174.336L304.111 174.24H304.335L304.271 174.336ZM304.527 175.104L304.623 175.168L304.527 175.328V175.104ZM304.751 175.52H304.943L304.847 175.616L304.751 175.584L304.527 175.744L304.751 175.52ZM303.919 176.352L304.015 176.192L304.111 176.16L303.919 176.352L304.015 176.416L303.919 176.512V176.352ZM304.399 176.352L304.495 176.288L304.527 176.352H304.399ZM303.343 176.864L303.631 176.704L303.695 176.8L303.343 177.056L303.279 176.992L303.343 176.864ZM303.695 177.024L303.983 177.056L303.887 177.12L303.791 177.088L303.695 177.024ZM303.695 177.44L303.759 177.344L303.919 177.44L304.015 177.408L303.951 177.664L303.919 177.536V177.44H303.695ZM304.175 177.76L304.047 177.824L303.919 177.856L304.047 177.632L304.207 177.664L304.175 177.76ZM303.631 177.952L303.439 177.856H303.695L303.631 177.952ZM304.111 178.016L304.047 178.08H303.919L304.111 177.856V178.016ZM303.439 178.912L303.311 178.848V178.784L303.439 178.72V178.912ZM303.919 178.912L304.015 178.752L304.111 178.72L303.919 178.912ZM303.855 179.264L303.695 179.328L303.791 179.232L303.919 179.136L303.855 179.264ZM303.855 179.488L303.695 179.552L303.919 179.328L303.855 179.488Z" fill="#3C3744"/>
<path d="M126.689 144.592C125.921 144.336 125.537 144.144 124.961 143.44C124.961 143.44 119.713 123.088 118.753 117.904C119.009 117.52 119.201 117.392 119.649 117.008C119.777 116.88 119.969 116.752 119.969 116.56C119.905 115.92 117.217 115.664 116.001 115.664H115.425C106.465 115.28 102.369 119.632 101.473 123.856C100.769 127.696 102.561 131.408 105.761 132.688C106.529 133.072 107.297 133.072 107.681 132.56C108.193 131.92 107.809 130.896 106.977 130.256C106.081 129.552 104.993 129.488 104.545 130.064C104.545 130.064 104.545 130.128 104.481 130.128C103.137 128.656 102.497 126.416 102.945 124.176C103.329 122.064 104.609 120.272 106.529 119.056C108.129 118.032 110.241 117.392 112.673 117.2C112.801 117.2 113.121 117.264 113.377 117.648L113.761 118.288C112.737 122.832 110.241 137.488 108.897 143.184C108.833 143.248 108.833 143.312 108.833 143.376C107.937 144.208 107.425 144.4 106.785 144.656C106.593 144.72 106.465 144.976 106.465 145.296C106.465 145.872 107.937 146 109.217 146C110.433 146 113.761 146.128 113.761 145.424C113.761 145.168 113.569 144.976 113.441 144.912C112.737 144.656 111.777 144.144 111.265 143.44C111.457 142.928 111.841 140.112 112.609 136.592L112.865 136.272C113.761 135.504 117.601 135.44 118.433 136.528C118.433 136.592 118.497 136.656 118.561 136.656C119.329 139.472 119.777 141.968 120.353 143.76C119.649 144.464 119.457 144.656 118.753 144.848C118.497 144.848 118.369 145.168 118.369 145.488C118.369 146.064 121.505 146 122.849 146C124.129 146 127.009 145.808 127.009 145.168C127.009 144.848 126.817 144.656 126.689 144.592ZM113.185 133.648C113.953 130 114.593 125.84 115.233 122.896C116.001 126.288 117.089 130.192 117.857 133.712C116.577 134.288 114.209 134.288 113.185 133.648ZM136.991 127.632C135.263 125.584 133.663 123.792 133.983 120.848C134.111 119.376 135.263 118.224 136.735 117.84C140.127 116.944 141.983 119.632 141.279 122.768C140.511 123.664 139.231 123.536 139.103 124.24C139.103 124.688 140.255 125.328 141.407 125.264C141.791 125.264 142.239 125.136 142.623 124.88C144.351 123.664 144.351 118.608 140.895 116.176C139.487 115.152 137.247 115.024 135.583 115.344C133.023 115.856 128.351 117.968 128.991 123.216C129.823 129.808 138.911 134.928 139.103 139.088C139.231 142.544 136.863 144.528 134.687 144.592C133.215 144.656 130.975 143.056 130.911 140.816C130.847 139.664 130.975 138.896 131.231 138.384C131.551 137.424 133.279 137.296 133.279 136.4C133.279 135.824 132.831 135.632 132.383 135.632C131.871 135.632 130.655 135.76 129.695 136.656C128.863 137.424 128.671 139.216 128.735 140.56C128.863 143.056 130.719 146.384 134.687 146.576C136.415 146.64 139.039 146.448 140.511 145.552C142.303 144.4 144.799 142.224 144.287 138.192C143.775 134.416 138.271 129.36 136.991 127.632ZM153.991 127.632C152.263 125.584 150.663 123.792 150.983 120.848C151.111 119.376 152.263 118.224 153.735 117.84C157.127 116.944 158.983 119.632 158.279 122.768C157.511 123.664 156.231 123.536 156.103 124.24C156.103 124.688 157.255 125.328 158.407 125.264C158.791 125.264 159.239 125.136 159.623 124.88C161.351 123.664 161.351 118.608 157.895 116.176C156.487 115.152 154.247 115.024 152.583 115.344C150.023 115.856 145.351 117.968 145.991 123.216C146.823 129.808 155.911 134.928 156.103 139.088C156.231 142.544 153.863 144.528 151.687 144.592C150.215 144.656 147.975 143.056 147.911 140.816C147.847 139.664 147.975 138.896 148.231 138.384C148.551 137.424 150.279 137.296 150.279 136.4C150.279 135.824 149.831 135.632 149.383 135.632C148.871 135.632 147.655 135.76 146.695 136.656C145.863 137.424 145.671 139.216 145.735 140.56C145.863 143.056 147.719 146.384 151.687 146.576C153.415 146.64 156.039 146.448 157.511 145.552C159.303 144.4 161.799 142.224 161.287 138.192C160.775 134.416 155.271 129.36 153.991 127.632ZM164.719 139.088C168.047 135.888 172.527 134.992 176.751 135.632C176.815 134.48 176.879 131.856 176.751 130.96C176.751 130.576 176.623 130.256 176.495 130.064C176.367 129.936 176.175 129.872 175.983 129.872C175.663 129.872 175.343 129.936 175.215 130.064C175.215 130.64 175.151 132.24 174.895 133.328C174.063 133.2 173.295 133.2 172.463 133.2C171.311 133.2 170.159 133.456 169.007 133.776L169.199 126.736C169.967 126.8 170.671 126.928 171.055 127.312C171.695 127.888 171.631 128.336 171.887 128.784C171.951 128.848 172.079 128.976 172.271 128.976C172.719 128.976 172.847 126.736 172.847 125.84C172.847 124.944 172.655 122.96 172.207 122.832C172.015 122.832 171.951 122.96 171.887 123.088C171.695 123.6 171.567 124.112 171.055 124.496C170.607 124.88 169.967 124.944 169.263 124.944L169.455 118.096H170.159C171.887 118.096 173.935 117.968 174.575 118.736C175.471 119.824 175.215 121.36 175.407 122.128C175.535 122.256 175.663 122.384 175.983 122.384C176.175 122.384 176.367 122.32 176.495 122.192C176.623 122 176.687 121.68 176.751 121.296C176.943 120.336 176.815 118.224 176.751 117.584C176.751 116.56 176.175 115.728 174.767 115.728C172.015 115.792 168.559 115.664 166.063 115.664C165.231 115.664 163.183 115.792 163.247 116.304C163.247 116.496 163.375 116.56 163.503 116.624C163.951 116.88 164.143 117.008 164.527 117.456C164.719 117.712 164.911 118.096 164.975 118.096L165.039 135.504C164.015 136.208 163.119 137.04 162.415 138.064L162.287 138.256C162.095 139.408 162.607 140.24 163.951 139.856L164.719 139.088ZM193.738 148.88C194.058 140.24 186.634 132.56 183.946 125.648C183.05 123.28 181.77 118.864 185.61 117.84C189.002 116.944 191.498 119.632 190.794 122.768C190.026 123.664 188.746 123.536 188.618 124.24C188.618 124.688 189.77 125.328 190.922 125.264C191.306 125.264 191.754 125.136 192.138 124.88C193.354 124.048 193.93 121.424 192.842 119.056C191.434 115.856 187.914 114.704 184.458 115.344C178.314 116.56 176.714 121.168 178.57 126.8C181.066 134.288 187.274 140.112 188.042 147.408C188.938 155.792 182.922 161.232 177.162 161.232C172.49 161.232 165.514 157.648 165.514 149.264C165.514 144.464 169.162 139.28 175.818 139.28C179.082 139.28 181.066 141.84 181.066 144.848C181.066 145.232 181.066 145.616 181.002 146C180.234 146.192 179.53 146.832 179.082 147.728C178.57 148.752 178.506 150.416 179.658 150.928C180.874 151.312 182.026 150.416 182.474 149.328C183.178 147.92 183.434 146.256 183.434 144.848C183.434 140.304 180.17 136.912 175.818 136.912C168.458 136.912 163.146 143.568 163.146 149.264C163.146 159.248 171.53 163.536 177.866 163.6C185.162 163.664 193.354 158.032 193.738 148.88ZM202.741 127.632C201.013 125.584 199.413 123.792 199.733 120.848C199.861 119.376 201.013 118.224 202.485 117.84C205.877 116.944 207.733 119.632 207.029 122.768C206.261 123.664 204.981 123.536 204.853 124.24C204.853 124.688 206.005 125.328 207.157 125.264C207.541 125.264 207.989 125.136 208.373 124.88C210.101 123.664 210.101 118.608 206.645 116.176C205.237 115.152 202.997 115.024 201.333 115.344C198.773 115.856 194.101 117.968 194.741 123.216C195.573 129.808 204.661 134.928 204.853 139.088C204.981 142.544 202.613 144.528 200.437 144.592C198.965 144.656 196.725 143.056 196.661 140.816C196.597 139.664 196.725 138.896 196.981 138.384C197.301 137.424 199.029 137.296 199.029 136.4C199.029 135.824 198.581 135.632 198.133 135.632C197.621 135.632 196.405 135.76 195.445 136.656C194.613 137.424 194.421 139.216 194.485 140.56C194.613 143.056 196.469 146.384 200.437 146.576C202.165 146.64 204.789 146.448 206.261 145.552C208.053 144.4 210.549 142.224 210.037 138.192C209.525 134.416 204.021 129.36 202.741 127.632ZM237.853 144.912C237.085 144.656 236.061 144.08 235.549 143.376L235.741 118.288C235.741 118.224 235.805 118.224 235.805 118.224C236.317 117.584 236.573 117.392 237.277 117.008C237.341 116.944 237.533 116.816 237.533 116.56C237.533 115.92 234.781 115.664 233.245 115.664C231.901 115.728 229.661 115.984 229.661 116.56C229.661 116.816 229.853 116.944 229.981 117.008C230.365 117.328 230.749 117.456 231.133 117.776L224.413 134.416L218.077 117.712C218.333 117.456 218.653 117.328 219.037 117.008C219.165 116.944 219.293 116.816 219.293 116.56C219.293 115.92 216.541 115.664 215.389 115.664C214.173 115.664 211.421 115.92 211.421 116.56C211.421 116.816 211.613 116.944 211.741 117.008C212.381 117.392 212.637 117.584 213.149 118.224V143.504C212.637 144.08 212.381 144.272 211.741 144.656C211.613 144.72 211.421 144.848 211.421 145.168C211.421 145.808 214.173 146 215.389 146C216.541 146 219.293 145.808 219.293 145.168C219.293 144.848 219.165 144.784 219.037 144.656C218.461 144.208 217.821 144.08 217.373 143.504L217.565 122.448L224.029 139.792C224.029 139.792 225.885 140.752 226.461 139.792L233.245 123.024V143.312L233.181 143.376C232.349 144.208 231.837 144.4 231.197 144.656C231.005 144.72 230.877 144.976 230.877 145.296C230.877 145.872 232.285 146 233.565 146C234.845 146 238.173 146.128 238.173 145.424C238.173 145.168 237.981 144.976 237.853 144.912ZM256.764 137.68C256.636 137.488 256.316 137.424 256.06 137.424C255.676 137.424 255.42 137.616 255.292 137.808C254.972 138.832 255.356 141.072 254.14 142.544C253.18 143.632 250.3 143.504 247.868 143.504H246.204L246.524 131.728C247.612 131.792 248.572 131.984 249.148 132.56C250.044 133.392 249.98 133.968 250.3 134.608C250.364 134.736 250.556 134.928 250.876 134.928C251.452 134.928 251.644 131.984 251.644 130.704C251.644 129.488 251.388 126.928 250.748 126.8C250.492 126.736 250.364 126.928 250.3 127.12C250.044 127.824 249.852 128.528 249.148 129.104C248.508 129.68 247.612 129.744 246.588 129.744L246.908 118.16H247.868C250.3 118.16 253.18 118.032 254.14 119.12C255.356 120.592 254.972 122.832 255.292 123.856C255.42 124.048 255.676 124.24 256.06 124.24C256.316 124.24 256.636 124.176 256.764 123.984C256.956 123.664 257.084 123.216 257.212 122.704C257.468 121.36 257.276 119.248 257.212 118.352C257.148 116.88 256.38 115.728 254.396 115.728C250.492 115.856 246.972 115.664 243.452 115.664C242.236 115.664 239.42 115.856 239.484 116.56C239.484 116.816 239.676 116.944 239.804 117.008C240.444 117.392 240.7 117.584 241.276 118.224C241.532 118.544 241.788 119.12 241.916 119.824V141.904C241.724 142.608 241.532 143.12 241.276 143.44C240.7 144.08 240.444 144.272 239.804 144.656C239.676 144.72 239.484 144.848 239.484 145.168C239.484 145.808 242.236 146 243.452 146H247.804C249.916 145.872 252.092 145.936 254.396 145.936C256.38 145.936 257.148 144.784 257.212 143.312C257.276 142.416 257.34 140.368 257.212 138.96C257.148 138.448 256.956 138 256.764 137.68ZM277.553 115.664C276.273 115.664 273.585 115.6 273.585 116.24C273.585 116.496 273.777 116.688 273.905 116.752C274.673 116.944 274.993 117.072 275.313 117.712L275.249 139.536C270.705 132.048 265.585 121.36 263.089 117.456C263.601 117.072 264.113 116.816 264.177 116.432C264.305 115.792 263.793 115.664 262.513 115.664C261.233 115.664 258.865 115.6 258.865 116.24C258.865 116.496 259.057 116.688 259.185 116.752C259.889 117.136 259.889 117.136 260.273 117.584V143.504C259.697 144.272 259.441 144.528 258.929 144.656C258.737 144.72 258.609 144.976 258.609 145.296C258.609 145.872 259.377 146 260.657 146C261.873 146 264.689 146.128 264.689 145.424C264.689 145.168 264.497 144.976 264.369 144.912C263.665 144.656 263.153 144.08 262.577 143.376V143.312C262.513 139.92 262.577 132.944 262.641 126.864C266.161 133.328 270.897 142.352 273.585 145.552C273.585 145.616 273.649 145.68 273.777 145.744C274.097 145.936 274.673 146 275.697 146C276.913 146 279.089 146.128 279.089 145.424C279.089 145.168 278.961 144.976 278.769 144.912C278.065 144.72 278.001 144.592 277.681 144.016C277.425 139.152 277.745 122.64 277.873 117.84V117.712C278.385 117.328 278.321 117.392 278.961 117.072C279.153 117.072 279.345 116.688 279.345 116.432C279.345 115.792 278.833 115.664 277.553 115.664ZM300.257 118.288C300.193 116.816 299.425 115.664 297.441 115.664C294.945 115.664 292.769 115.664 290.145 115.6C287.777 115.728 285.729 115.664 283.233 115.664C281.249 115.664 280.481 116.816 280.417 118.288C280.353 119.184 280.289 121.872 280.417 123.28C280.481 123.792 280.673 124.24 280.865 124.56C280.993 124.752 281.313 124.816 281.569 124.816C281.953 124.816 282.209 124.624 282.337 124.432C282.657 123.408 282.273 120.784 283.489 119.312C284.257 118.416 286.049 118.352 288.097 118.352V143.504C287.585 144.08 287.201 144.272 286.561 144.656C286.433 144.72 286.241 144.848 286.241 145.168C286.241 145.808 288.993 146 290.209 146C291.425 146 294.177 145.808 294.177 145.168C294.177 144.848 293.985 144.784 293.857 144.656C293.281 144.208 292.705 144.08 292.257 143.504L292.577 118.352C294.625 118.352 296.417 118.416 297.185 119.312C298.401 120.784 298.017 123.408 298.337 124.432C298.465 124.624 298.721 124.816 299.105 124.816C299.361 124.816 299.681 124.752 299.809 124.56C300.001 124.24 300.193 123.792 300.257 123.28C300.385 121.872 300.321 119.184 300.257 118.288Z" fill="#3C3744"/>
<path d="M301 74.8742V70.9022C301 67.5637 302.284 64.3514 304.586 61.9345L305.443 61.0345C307.897 58.4581 311.299 57 314.857 57H323.373C326.82 57 330.127 58.3696 332.565 60.8076L334.646 58.7263L332.565 60.8076L333.692 61.935C337.256 65.4982 342.088 67.5 347.127 67.5H355.873C359.32 67.5 362.627 68.8696 365.065 71.3076L365.426 71.6685L367.547 69.5472L365.426 71.6685C367.714 73.957 369 77.0608 369 80.2972V83.1256C369 88.303 364.803 92.5 359.626 92.5C355.548 92.5 351.638 94.1198 348.754 97.0031L346.414 99.3431C344.713 101.044 342.406 102 340 102C337.594 102 335.287 101.044 333.586 99.3431L328.308 94.065C324.744 90.5018 319.912 88.5 314.873 88.5H314.627C311.18 88.5 307.873 87.1304 305.435 84.6924L304.808 84.065C302.369 81.6268 301 78.3217 301 74.8742Z" fill="#64B3A1" stroke="#82CBBA" stroke-width="6"/>
<path d="M167.116 76.0806L165.348 77.8483L167.116 76.0806L166.768 75.7322C165.315 74.2798 164.5 72.3126 164.5 70.2597V54.5V48.2426C164.5 46.1892 165.316 44.2198 166.768 42.7678C168.22 41.3157 170.189 40.5 172.243 40.5H173.5C176.359 40.5 179.1 41.6356 181.121 43.6569L183.046 45.5815C185.578 48.1132 187 51.547 187 55.1274V84.2574C187 85.2198 186.22 86 185.257 86C184.795 86 184.352 85.8164 184.025 85.4896L179.919 81.3839C177.753 79.2172 174.814 78 171.75 78C170.012 78 168.345 77.3096 167.116 76.0806Z" fill="#64B3A1" stroke="#82CBBA" stroke-width="5"/>
<path d="M344.183 142.324L343.478 143.033L344.183 142.324L343.94 142.082C342.698 140.846 342 139.166 342 137.414V130.957C342 128.772 343.771 127 345.955 127C347 127 348.003 127.414 348.744 128.152L351.79 131.183C353.205 132.591 354 134.504 354 136.5V138.244C354 141.423 351.423 144 348.244 144C346.722 144 345.262 143.397 344.183 142.324Z" fill="#64B3A1" stroke="#82CBBA" stroke-width="2"/>
<path d="M324.75 142.783V139.219C324.75 138.891 325.016 138.625 325.343 138.625C325.894 138.625 326.423 138.408 326.815 138.02L327.37 137.471C327.836 137.009 328.466 136.75 329.122 136.75H329.684C330.701 136.75 331.676 137.151 332.398 137.866L334.14 139.589C334.85 140.292 335.25 141.25 335.25 142.25V142.782C335.25 143.441 334.986 144.073 334.518 144.536C334.056 144.994 333.432 145.25 332.782 145.25H327.218C326.568 145.25 325.944 144.994 325.482 144.536C325.013 144.073 324.75 143.441 324.75 142.783Z" fill="#64B3A1" stroke="#82CBBA" stroke-width="1.5"/>
<path d="M128.464 30.8952L131.286 28.0598L128.464 30.8952C130.728 33.1473 132 36.2085 132 39.4013V48.1482C132 51.341 130.728 54.4022 128.464 56.6543L104.495 80.5061C102.246 82.7438 99.2031 84 96.0307 84H66.817C63.6446 84 60.6013 82.7438 58.3526 80.5061L43.3746 65.6015C41.0258 63.2643 37.8472 61.9522 34.5337 61.9522C32.0357 61.9522 30 59.9186 30 57.4088V29.8005C30 26.6086 31.2717 23.5507 33.5356 21.2979L35.3485 19.4939C37.5972 17.2562 40.6406 16 43.8129 16H63.4477C66.6201 16 69.6634 17.2562 71.9121 19.4939L74.8362 22.4036C77.8933 25.4458 82.0307 27.1536 86.3436 27.1536C90.6565 27.1536 94.7939 25.4458 97.851 22.4036L101.022 19.2481C103.113 17.1678 105.942 16 108.891 16C111.84 16 114.669 17.1678 116.76 19.2481L128.464 30.8952Z" fill="#64B3A1" stroke="#82CBBA" stroke-width="8" stroke-miterlimit="1"/>
<path d="M50 46.9638V49.533C50 53.6728 51.6445 57.6445 54.5718 60.5718L66.4393 72.4393C67.1185 73.1185 68.0396 73.5 69 73.5H89.8756C92.1963 73.5 94.4219 72.5781 96.0628 70.9372L102.117 64.8832C105.395 61.6051 103.073 56 98.4373 56C96.8929 56 95.4284 55.314 94.4397 54.1276L85.7975 43.757C82.7576 40.1092 78.2545 38 73.506 38H58.9665C56.4402 38 54.0312 39.0657 52.3318 40.935C50.8314 42.5855 50 44.7332 50 46.9638Z" fill="#53A391"/>
<path d="M172 65.5027V55.5048C172 53.5718 173.567 52 175.5 52C177.433 52 179 53.567 179 55.5V65.5C179 67.433 177.433 69 175.5 69C173.567 69 172 67.4357 172 65.5027Z" fill="#53A391"/>
<path d="M323.25 79.5H317.25C313.798 79.5 311 76.5143 311 73.0625C311 69.6107 313.798 67 317.25 67H323.25C326.702 67 329.5 69.7982 329.5 73.25C329.5 76.7018 326.702 79.5 323.25 79.5Z" fill="#53A391"/>
<rect x="58.5679" y="54.5435" width="2.87072" height="9.56905" rx="1.43536" fill="#754231"/>
<rect x="87.2754" y="54.5435" width="2.87072" height="9.56905" rx="1.43536" fill="#754231"/>
<rect x="58.5679" y="32.5347" width="31.5779" height="23.9226" rx="1" fill="#905643"/>
<path d="M56.9508 18.8456L70.9031 5.08184C71.0936 4.89392 71.2045 4.6339 71.2045 4.36632V1C71.2045 0.447715 71.6522 0 72.2045 0H76.5096C77.0619 0 77.5096 0.447715 77.5096 1V4.36632C77.5096 4.6339 77.6168 4.89031 77.8073 5.07822L91.754 18.8364C91.9492 19.029 92.0568 19.2934 92.0515 19.5676L91.504 47.8652C91.4975 48.2057 91.318 48.5194 91.0279 48.6978L90.1514 49.2365C89.7072 49.5096 89.1278 49.3955 88.8202 48.9745L77.7021 33.7552C77.577 33.584 77.5096 33.3774 77.5096 33.1653V29.7072C77.5096 29.1549 77.0619 28.7072 76.5096 28.7072H72.2045C71.6522 28.7072 71.2045 29.1549 71.2045 29.7072V33.1739C71.2045 33.3807 71.1404 33.5823 71.0211 33.7512L59.9442 49.422C59.5903 49.9226 58.8735 49.9899 58.4327 49.5639L56.9594 48.1401C56.7644 47.9517 56.6543 47.6922 56.6543 47.421V19.5563C56.6543 19.2887 56.7604 19.0335 56.9508 18.8456Z" fill="#E58438"/>
<path d="M68.1071 7.84014L69.5021 6.46394C70.134 5.84058 71.2044 6.28822 71.2044 7.17585V27.7073C71.2044 28.2596 71.6521 28.7073 72.2044 28.7073H77.9645C78.5168 28.7073 78.9645 29.155 78.9645 29.7073V34.509C78.9645 34.7766 79.0718 35.033 79.2622 35.2209L91.3381 47.1335C91.735 47.5251 91.735 48.1657 91.3381 48.5573L90.337 49.5449C89.9476 49.929 89.3218 49.929 88.9324 49.5449L74.828 35.6311C74.4342 35.2426 73.7998 35.2476 73.4122 35.6423L59.7031 49.6024C59.3475 49.9645 58.7769 50.0028 58.3761 49.6914L56.9078 48.5507C56.4282 48.1781 56.3887 47.4674 56.8242 47.044L67.5065 36.657C67.7001 36.4688 67.8094 36.2102 67.8094 35.9401V8.55204C67.8094 8.28447 67.9166 8.02805 68.1071 7.84014Z" fill="#DF6C2E"/>
<rect x="65.2666" y="47.8452" width="4.78453" height="3.82762" rx="1" fill="#754231"/>
<rect x="78.6631" y="47.8452" width="4.78453" height="3.82762" rx="1" fill="#754231"/>
<ellipse cx="111.5" cy="47.0266" rx="14.5" ry="9.1579" fill="#6D5C50"/>
<ellipse cx="111.5" cy="47.0262" rx="10.6842" ry="6.10526" fill="#99807B"/>
<rect x="105.395" y="46.2632" width="12.2105" height="3.81579" rx="1.90789" fill="#93583C"/>
<path d="M104.057 41.4997C104.987 38.3984 107.11 38.0655 106.346 33.4865C110.544 35.776 108.254 38.447 109.781 41.4997C110.925 43.7892 112.452 36.1576 113.215 31.1971C113.454 29.642 115.504 37.6839 115.886 41.4997C115.886 42.5172 116.191 43.5602 117.412 39.5918C118.557 49.1313 115.123 47.605 111.307 47.605C107.197 47.605 102.912 45.3155 104.057 41.4997Z" fill="#E78438"/>
<path d="M113.116 47.7894H109.682C109.072 45.6525 111.717 43.3376 113.116 42.4473V47.7894Z" fill="#FFBA6E"/>
</svg>
