<svg width="40" height="40" viewBox="0 0 40 40" fill="none" xmlns="http://www.w3.org/2000/svg">
<path fill-rule="evenodd" clip-rule="evenodd" d="M12.0638 0.8655C14.1165 0.771 14.771 0.75 20 0.75C25.229 0.75 25.8835 0.77275 27.9345 0.8655C29.9855 0.95825 31.3855 1.2855 32.6105 1.75975C33.8932 2.2445 35.057 3.00225 36.0195 3.98225C36.9995 4.943 37.7555 6.105 38.2385 7.3895C38.7145 8.6145 39.04 10.0145 39.1345 12.062C39.229 14.1182 39.25 14.7727 39.25 20C39.25 25.229 39.2272 25.8835 39.1345 27.9362C39.0418 29.9837 38.7145 31.3837 38.2385 32.6087C37.7555 33.8934 36.9982 35.0574 36.0195 36.0195C35.057 36.9995 33.8932 37.7555 32.6105 38.2385C31.3855 38.7145 29.9855 39.04 27.938 39.1345C25.8835 39.229 25.229 39.25 20 39.25C14.771 39.25 14.1165 39.2272 12.0638 39.1345C10.0163 39.0418 8.61625 38.7145 7.39125 38.2385C6.10661 37.7554 4.94269 36.9982 3.9805 36.0195C3.00116 35.0582 2.2433 33.8948 1.75975 32.6105C1.2855 31.3855 0.96 29.9855 0.8655 27.938C0.771 25.8817 0.75 25.2272 0.75 20C0.75 14.771 0.77275 14.1165 0.8655 12.0655C0.95825 10.0145 1.2855 8.6145 1.75975 7.3895C2.24401 6.10514 3.00246 4.9418 3.98225 3.9805C4.94307 3.00138 6.10583 2.24353 7.3895 1.75975C8.6145 1.2855 10.0145 0.96 12.062 0.8655H12.0638ZM27.7787 4.3305C25.7487 4.23775 25.1397 4.2185 20 4.2185C14.8602 4.2185 14.2512 4.23775 12.2212 4.3305C10.3435 4.41625 9.325 4.7295 8.646 4.99375C7.74825 5.34375 7.106 5.7585 6.43225 6.43225C5.79358 7.05359 5.30207 7.80999 4.99375 8.646C4.7295 9.325 4.41625 10.3435 4.3305 12.2212C4.23775 14.2512 4.2185 14.8602 4.2185 20C4.2185 25.1397 4.23775 25.7487 4.3305 27.7787C4.41625 29.6565 4.7295 30.675 4.99375 31.354C5.30175 32.1888 5.7935 32.9465 6.43225 33.5677C7.0535 34.2065 7.81125 34.6982 8.646 35.0063C9.325 35.2705 10.3435 35.5838 12.2212 35.6695C14.2512 35.7622 14.8585 35.7815 20 35.7815C25.1415 35.7815 25.7487 35.7622 27.7787 35.6695C29.6565 35.5838 30.675 35.2705 31.354 35.0063C32.2518 34.6562 32.894 34.2415 33.5677 33.5677C34.2065 32.9465 34.6982 32.1888 35.0063 31.354C35.2705 30.675 35.5838 29.6565 35.6695 27.7787C35.7622 25.7487 35.7815 25.1397 35.7815 20C35.7815 14.8602 35.7622 14.2512 35.6695 12.2212C35.5838 10.3435 35.2705 9.325 35.0063 8.646C34.6562 7.74825 34.2415 7.106 33.5677 6.43225C32.9464 5.79362 32.19 5.30212 31.354 4.99375C30.675 4.7295 29.6565 4.41625 27.7787 4.3305ZM17.5413 25.9342C18.9144 26.5059 20.4434 26.583 21.8671 26.1525C23.2908 25.722 24.5209 24.8106 25.3473 23.5739C26.1737 22.3372 26.5451 20.852 26.3981 19.3719C26.2511 17.8918 25.5948 16.5087 24.5413 15.4587C23.8697 14.7876 23.0576 14.2737 22.1636 13.954C21.2695 13.6343 20.3158 13.5169 19.3709 13.6101C18.426 13.7033 17.5135 14.0048 16.6992 14.493C15.8848 14.9811 15.1888 15.6438 14.6613 16.4332C14.1338 17.2227 13.7878 18.1193 13.6484 19.0584C13.509 19.9976 13.5795 20.956 13.8549 21.8647C14.1304 22.7733 14.6038 23.6096 15.2413 24.3133C15.8787 25.017 16.6642 25.5706 17.5413 25.9342ZM13.0035 13.0035C13.9223 12.0847 15.0131 11.3559 16.2135 10.8586C17.414 10.3614 18.7006 10.1055 20 10.1055C21.2994 10.1055 22.586 10.3614 23.7865 10.8586C24.9869 11.3559 26.0777 12.0847 26.9965 13.0035C27.9153 13.9223 28.6441 15.0131 29.1414 16.2135C29.6386 17.414 29.8945 18.7006 29.8945 20C29.8945 21.2994 29.6386 22.586 29.1414 23.7865C28.6441 24.9869 27.9153 26.0777 26.9965 26.9965C25.1409 28.8521 22.6242 29.8945 20 29.8945C17.3758 29.8945 14.8591 28.8521 13.0035 26.9965C11.1479 25.1409 10.1055 22.6242 10.1055 20C10.1055 17.3758 11.1479 14.8591 13.0035 13.0035ZM32.089 11.579C32.3167 11.3642 32.499 11.1059 32.625 10.8195C32.7511 10.533 32.8184 10.2241 32.823 9.91113C32.8275 9.59816 32.7693 9.28746 32.6516 8.99742C32.5339 8.70738 32.3593 8.44389 32.1379 8.22257C31.9166 8.00124 31.6531 7.82658 31.3631 7.70891C31.073 7.59124 30.7623 7.53296 30.4494 7.53752C30.1364 7.54208 29.8275 7.60939 29.541 7.73547C29.2546 7.86154 28.9963 8.04382 28.7815 8.2715C28.3638 8.7143 28.1351 9.30246 28.144 9.91113C28.1529 10.5198 28.3986 11.101 28.829 11.5315C29.2595 11.9619 29.8407 12.2077 30.4494 12.2165C31.058 12.2254 31.6462 11.9967 32.089 11.579Z" fill="#3477DE"/>
</svg>
