<svg xmlns="http://www.w3.org/2000/svg" width="26" height="26" fill="none"><path fill="#fff" fill-rule="evenodd" d="M3 .25A2.75 2.75 0 0 0 .25 3v20A2.75 2.75 0 0 0 3 25.75h20A2.75 2.75 0 0 0 25.75 23V8.561c0-.73-.29-1.43-.808-1.946l-5.574-5.562A2.75 2.75 0 0 0 17.426.25H3Zm3.419 1.5H4.834v3.591c0 .69.56 1.25 1.25 1.25h.335V1.75Zm-3.085 0H3c-.69 0-1.25.56-1.25 1.25v20c0 .69.56 1.25 1.25 1.25h3.813l.06-4.41a2.75 2.75 0 0 1 2.75-2.712h7.98a2.75 2.75 0 0 1 2.75 2.75v4.372H23c.69 0 1.25-.56 1.25-1.25V8.561c0-.332-.132-.65-.367-.884l-5.574-5.562a1.25 1.25 0 0 0-.883-.365h-.736v3.591a2.75 2.75 0 0 1-2.75 2.75H6.084a2.75 2.75 0 0 1-2.75-2.75V1.75Zm11.856 0v3.591c0 .69-.56 1.25-1.25 1.25H7.919V1.75h7.27Zm3.662 22.5v-4.372c0-.69-.56-1.25-1.25-1.25H9.623c-.683 0-1.24.55-1.25 1.233l-.06 4.389h10.54Z" clip-rule="evenodd"/></svg>