<svg width="2000" height="2000" viewBox="0 0 2000 2000" fill="none" xmlns="http://www.w3.org/2000/svg">
<circle cx="1000" cy="1000" r="1000" fill="#905643"/>
<path d="M329.039 475.658L342.128 462.095C392.768 409.624 476.863 409.728 527.373 462.324C529.673 464.719 530.957 467.91 530.957 471.23V592.053L950.358 452.973C982.69 442.251 1017.71 442.853 1049.65 454.681L1480.74 614.287V471.784C1480.74 468.123 1482.23 464.619 1484.86 462.074L1490.54 456.584C1541.92 406.896 1624.13 409.224 1672.62 461.74C1675.15 464.479 1676.36 468.188 1675.91 471.889L1625.4 895.21C1625.05 898.149 1625.02 901.118 1625.33 904.063L1672.36 1359.11C1674.56 1361.05 1674.44 1364.52 1672.12 1366.3L1584.53 1433.47C1563.15 1449.86 1535.84 1456.46 1509.34 1451.64L1025.83 1363.75C1008.94 1360.68 991.646 1360.53 974.705 1363.31L540.887 1434.52C452.065 1449.1 364.446 1402.55 326.811 1320.79L324 1314.68L389.463 924.471C390.165 920.291 390.197 916.027 389.56 911.837L325.091 488.053C324.404 483.532 325.863 478.949 329.039 475.658Z" fill="#ECD4B9"/>
<path d="M324 1314.68L389.463 924.471C390.165 920.291 390.197 916.027 389.56 911.837L325.091 488.053C324.404 483.532 325.863 478.949 329.039 475.658L342.128 462.095C392.768 409.624 476.863 409.728 527.373 462.324V462.324C529.673 464.719 530.957 467.91 530.957 471.23V592.053M324 1314.68L326.811 1320.79C364.446 1402.55 452.065 1449.1 540.887 1434.52L974.705 1363.31C991.646 1360.53 1008.94 1360.68 1025.83 1363.75L1509.34 1451.64C1535.84 1456.46 1563.15 1449.86 1584.53 1433.47L1672.12 1366.3C1674.44 1364.52 1674.56 1361.05 1672.36 1359.11V1359.11M324 1314.68V1314.68C366.465 1238.03 474.727 1232.83 524.344 1305.05L530.957 1314.68V592.053M1672.36 1359.11V1359.11C1633.96 1284.86 1528.91 1281.78 1486.22 1353.64L1480.74 1362.86V614.287M1672.36 1359.11L1625.33 904.063C1625.02 901.118 1625.05 898.149 1625.4 895.21L1675.91 471.889C1676.36 468.188 1675.15 464.479 1672.62 461.74V461.74C1624.13 409.224 1541.92 406.896 1490.54 456.584L1484.86 462.074C1482.23 464.619 1480.74 468.123 1480.74 471.784V614.287M1480.74 614.287L1049.65 454.681C1017.71 442.853 982.69 442.251 950.358 452.973L530.957 592.053" stroke="black" stroke-width="4"/>
<g opacity="0.8">
<path d="M640.648 1142.96L653.968 1031.97H679.127L692.446 1142.96H640.648Z" fill="#C98A50" stroke="#623D1B" stroke-width="3"/>
<path d="M616.883 1026.4L616.962 1030.18C617.617 1061.7 662.474 1066.9 670.318 1036.36L672.09 1037.43C694.631 1051.02 720.381 1025.49 706.989 1002.83L710.053 1002.34C738.739 997.788 745.774 959.71 720.609 945.205C733.144 919.312 700.381 895.377 679.525 915.19L676.604 917.964C667.626 887.565 624.729 887.124 615.127 917.331L610.597 931.584C583.736 926.89 568.867 961.613 590.8 977.814L594.881 980.828C569.042 992.429 580.125 1031.33 608.198 1027.57L616.883 1026.4Z" fill="#B8DFC8" stroke="#30634E" stroke-width="3"/>
</g>
<path d="M841.102 1195.17L1030.87 972.702C1034.78 968.118 1037.6 962.71 1039.13 956.882L1103.75 710.253C1108.84 690.852 1098.77 670.686 1080.21 663.092L943.39 607.121C922.887 598.734 899.309 604.837 885.451 622.119L780.681 752.771C765.681 771.477 770.396 799.087 790.754 811.756L966.648 921.214L1244.11 1097.27C1253.22 1103.06 1264.28 1104.91 1274.78 1102.42L1320.25 1091.62C1352.42 1083.98 1361.96 1042.81 1336.41 1021.81L1214.05 921.214" stroke="black" stroke-width="4" stroke-dasharray="15 15"/>
<path d="M1258.03 834.65L1220.41 925.699M1182.79 1016.75L1220.41 925.699M1220.41 925.699L1132.35 899.388M1220.41 925.699L1316.68 951.045" stroke="#CF4545" stroke-width="5"/>
<path d="M1207.87 1286.13H981.043L1112.26 1091.17L1207.87 1286.13Z" fill="#A2B1D7" stroke="#54659E" stroke-width="4"/>
<path d="M1262.23 1314.24H1134.76L1208.5 1205.52L1262.23 1314.24Z" fill="#A2B1D7" stroke="#54659E" stroke-width="4"/>
<path d="M1112.81 1093.05L1145.99 1160.54L1123.5 1145.54L1102.88 1160.54L1089.76 1145.54L1067.26 1160.54L1112.81 1093.05Z" fill="white"/>
<path d="M1209.52 1205.52L1228.49 1243.01L1215.63 1234.68L1203.85 1243.01L1196.35 1234.68L1183.5 1243.01L1209.52 1205.52Z" fill="white"/>
</svg>
