<svg width="2000" height="2035" viewBox="0 0 2000 2035" fill="none" xmlns="http://www.w3.org/2000/svg">
<circle cx="1000" cy="1000" r="1000" fill="#EEC0AD"/>
<path d="M1320.14 485.74L1287.77 482.597L1393.28 548.632L1380.03 529.637C1372.38 518.679 1372.9 503.986 1381.31 493.6L1402.87 466.958L1475.58 389.619C1478.8 386.197 1481.17 382.068 1482.5 377.563L1491.21 348.048C1492.75 342.848 1492.84 337.329 1491.49 332.078L1490.63 328.739C1487.22 315.482 1475.27 306.216 1461.58 306.216H1456.56C1448.95 306.216 1441.64 309.103 1436.08 314.293L1407.99 340.537C1404.62 343.68 1402.02 347.556 1400.4 351.864L1368.02 437.637C1367.42 439.225 1366.69 440.758 1365.83 442.221L1348.91 471.059C1343 481.14 1331.77 486.869 1320.14 485.74Z" fill="#905643"/>
<path d="M1607.72 863.722L1586.73 838.877L1616.2 959.811L1619.97 936.959C1622.14 923.776 1632.77 913.619 1646.04 912.048L1680.08 908.018L1786.13 903.389C1790.82 903.184 1795.4 901.881 1799.5 899.583L1826.34 884.528C1831.06 881.875 1834.99 877.991 1837.68 873.288L1839.4 870.297C1846.21 858.422 1844.12 843.443 1834.31 833.889L1830.72 830.383C1825.27 825.076 1818.02 822.035 1810.41 821.873L1771.98 821.057C1767.37 820.96 1762.81 821.923 1758.64 823.873L1675.58 862.696C1674.05 863.414 1672.45 864.001 1670.81 864.45L1638.57 873.294C1627.3 876.385 1615.26 872.65 1607.72 863.722Z" fill="#905643"/>
<path d="M1554.62 1342.76L1559.38 1310.59L1488.13 1412.65L1507.77 1400.37C1519.1 1393.28 1533.74 1394.55 1543.7 1403.46L1569.22 1426.33L1642.81 1502.84C1646.06 1506.23 1650.07 1508.8 1654.5 1510.36L1683.54 1520.54C1688.66 1522.34 1694.16 1522.71 1699.47 1521.62L1702.85 1520.93C1716.26 1518.19 1726.12 1506.72 1726.81 1493.05L1727.06 1488.03C1727.44 1480.44 1724.93 1472.98 1720.02 1467.17L1695.22 1437.8C1692.25 1434.28 1688.51 1431.49 1684.29 1429.65L1600.25 1393C1598.7 1392.32 1597.2 1391.51 1595.79 1390.58L1567.83 1372.24C1558.06 1365.83 1552.91 1354.32 1554.62 1342.76Z" fill="#905643"/>
<path d="M1165.31 1628.99L1188.63 1606.32L1070.05 1644.16L1093.1 1646.32C1106.41 1647.57 1117.28 1657.46 1119.78 1670.59L1126.17 1704.26L1138.19 1809.73C1138.73 1814.4 1140.35 1818.87 1142.92 1822.8L1159.82 1848.52C1162.79 1853.06 1166.94 1856.7 1171.82 1859.06L1174.92 1860.56C1187.25 1866.53 1202.04 1863.39 1210.89 1852.95L1214.13 1849.11C1219.05 1843.31 1221.58 1835.86 1221.21 1828.27L1219.34 1789.87C1219.11 1785.27 1217.83 1780.78 1215.6 1776.76L1171.07 1696.61C1170.25 1695.13 1169.55 1693.58 1168.99 1691.98L1157.91 1660.43C1154.04 1649.41 1156.93 1637.13 1165.31 1628.99Z" fill="#905643"/>
<path d="M694.664 1585.11L727.075 1587.81L620.675 1523.22L634.184 1542.03C641.977 1552.88 641.654 1567.58 633.39 1578.08L612.194 1605.02L540.538 1683.34C537.367 1686.8 535.055 1690.96 533.786 1695.49L525.476 1725.12C524.012 1730.34 523.99 1735.86 525.413 1741.09L526.317 1744.41C529.909 1757.62 541.986 1766.73 555.674 1766.54L560.696 1766.47C568.298 1766.37 575.578 1763.38 581.063 1758.12L608.798 1731.49C612.12 1728.31 614.663 1724.39 616.231 1720.06L647.441 1633.86C648.018 1632.26 648.73 1630.72 649.569 1629.25L666.091 1600.18C671.867 1590.02 683.017 1584.14 694.664 1585.11Z" fill="#905643"/>
<path d="M392.266 1185.59L414.736 1209.1L377.912 1090.2L375.552 1113.24C374.19 1126.54 364.202 1137.33 351.055 1139.71L317.331 1145.81L211.761 1156.94C207.09 1157.43 202.599 1159.01 198.651 1161.55L172.785 1178.23C168.228 1181.16 164.552 1185.28 162.148 1190.14L160.619 1193.23C154.549 1205.5 157.555 1220.32 167.925 1229.26L171.73 1232.54C177.49 1237.5 184.919 1240.09 192.516 1239.79L230.93 1238.24C235.531 1238.06 240.028 1236.82 244.073 1234.62L324.593 1190.78C326.083 1189.97 327.639 1189.28 329.244 1188.73L360.884 1177.93C371.944 1174.15 384.191 1177.14 392.266 1185.59Z" fill="#905643"/>
<path d="M457.57 699.875L457.904 732.396L512.289 620.434L494.819 635.639C484.74 644.411 470.075 645.46 458.85 638.213L430.058 619.621L345.395 555.584C341.649 552.751 337.289 550.837 332.668 549.996L302.392 544.486C297.058 543.516 291.56 544.009 286.484 545.913L283.256 547.124C270.439 551.932 262.502 564.806 263.964 578.417L264.501 583.411C265.313 590.97 268.965 597.94 274.719 602.91L303.814 628.04C307.299 631.05 311.43 633.217 315.887 634.374L404.628 657.406C406.27 657.832 407.873 658.397 409.42 659.094L439.9 672.833C450.555 677.635 457.45 688.189 457.57 699.875Z" fill="#905643"/>
<path d="M836.838 418.594L813.474 441.219L932.131 403.617L909.076 401.407C895.775 400.133 884.921 390.216 882.454 377.084L876.125 343.4L864.312 237.906C863.79 233.238 862.178 228.758 859.608 224.827L842.767 199.07C839.8 194.532 835.659 190.883 830.783 188.511L827.683 187.003C815.374 181.014 800.571 184.117 791.703 194.545L788.45 198.371C783.525 204.163 780.982 211.609 781.337 219.204L783.13 257.607C783.345 262.207 784.616 266.696 786.844 270.726L831.211 350.957C832.032 352.441 832.726 353.993 833.284 355.595L844.295 387.163C848.144 398.198 845.234 410.464 836.838 418.594Z" fill="#905643"/>
<circle cx="999.128" cy="1022.13" r="630.456" fill="#905643"/>
<circle cx="999.125" cy="1022.13" r="567.672" fill="#EEC0AD"/>
<circle cx="1000" cy="1023" r="558.08" fill="#905643"/>
<circle cx="999.125" cy="1022.13" r="541.512" fill="#EEC0AD"/>
<circle cx="999.13" cy="1022.13" r="143.88" fill="#905643"/>
<circle cx="999.128" cy="1022.13" r="122.952" fill="#EEC0AD"/>
<circle cx="999.13" cy="1022.13" r="117.72" fill="#905643"/>
<circle cx="999.13" cy="1022.13" r="23.544" fill="#EEC0AD"/>
<path d="M893.387 816.511L926.757 897.432L980.821 882.608V803.289C980.821 800.395 980.193 797.536 978.98 794.908L943.742 718.559C940.781 712.143 941.425 704.641 945.437 698.824L950.022 692.175C953.42 687.249 951.758 680.461 946.469 677.66L937.399 672.859C930.852 669.392 926.757 662.591 926.757 655.183V583.548C926.757 581.217 926.349 578.904 925.553 576.713L891.877 484.104L841.301 497.184V594.012C841.301 596.862 841.91 599.679 843.087 602.274L875.943 674.707C878.312 679.93 878.325 685.917 875.98 691.15L871.983 700.065C869.904 704.704 871.636 710.166 876.01 712.758L882.073 716.351C888.15 719.952 891.877 726.492 891.877 733.557V808.887C891.877 811.502 892.39 814.093 893.387 816.511Z" fill="#905643"/>
<path d="M1076.1 805.357L1036.69 883.511L1083.25 914.73L1143.27 862.876C1145.46 860.984 1147.21 858.639 1148.41 856.004L1183.15 779.426C1186.06 772.991 1192.16 768.573 1199.19 767.806L1207.22 766.929C1213.17 766.28 1217.22 760.585 1215.88 754.751L1213.58 744.749C1211.92 737.529 1214.39 729.984 1220 725.141L1274.21 678.309C1275.97 676.785 1277.45 674.965 1278.59 672.93L1326.65 586.904L1283.69 557.184L1210.42 620.485C1208.26 622.348 1206.53 624.65 1205.34 627.238L1172.01 699.453C1169.6 704.66 1165.08 708.585 1159.59 710.23L1150.23 713.034C1145.36 714.494 1142.36 719.375 1143.26 724.38L1144.5 731.316C1145.75 738.269 1143.24 745.365 1137.89 749.983L1080.89 799.23C1078.91 800.94 1077.28 803.022 1076.1 805.357Z" fill="#905643"/>
<path d="M1207.24 921.745L1124.68 953.116L1138.31 1007.53L1218.45 1009.51C1221.32 1009.58 1224.17 1009.03 1226.81 1007.9L1304.98 974.468C1311.43 971.711 1318.84 972.53 1324.53 976.625L1331.41 981.577C1336.24 985.054 1343.02 983.569 1345.95 978.391L1351.12 969.271C1354.76 962.851 1361.64 958.955 1369.02 959.137L1441.55 960.924C1443.86 960.981 1446.16 960.637 1448.35 959.908L1542.71 928.526L1530.76 877.641L1432.95 875.23C1430.12 875.161 1427.32 875.691 1424.71 876.785L1350.59 907.918C1345.34 910.12 1339.41 909.987 1334.28 907.552L1325.11 903.208C1320.54 901.043 1315.07 902.628 1312.37 906.901L1308.5 913.02C1304.75 918.966 1298.14 922.5 1291.11 922.326L1214.84 920.447C1212.25 920.383 1209.67 920.824 1207.24 921.745Z" fill="#905643"/>
<path d="M1211.5 1106.67L1130.82 1072.71L1102.87 1121.31L1158.73 1177.63C1160.77 1179.68 1163.23 1181.27 1165.94 1182.28L1244.72 1211.68C1251.34 1214.15 1256.17 1219.93 1257.41 1226.88L1258.84 1234.83C1259.9 1240.72 1265.86 1244.37 1271.58 1242.64L1281.41 1239.66C1288.5 1237.51 1296.19 1239.46 1301.41 1244.72L1351.85 1295.58C1353.49 1297.23 1355.41 1298.59 1357.52 1299.58L1446.64 1341.62L1473.34 1296.72L1405.16 1227.97C1403.15 1225.95 1400.74 1224.38 1398.07 1223.36L1323.74 1195.07C1318.38 1193.03 1314.15 1188.79 1312.13 1183.42L1308.69 1174.28C1306.9 1169.52 1301.83 1166.86 1296.9 1168.1L1290.06 1169.82C1283.21 1171.54 1275.96 1169.52 1270.98 1164.51L1217.94 1111.02C1216.1 1109.16 1213.91 1107.69 1211.5 1106.67Z" fill="#905643"/>
<path d="M1067.99 1230.79L1035.84 1149.38L981.557 1163.39L980.37 1242.7C980.326 1245.6 980.911 1248.46 982.085 1251.11L1016.18 1327.98C1019.04 1334.44 1018.28 1341.93 1014.18 1347.69L1009.5 1354.26C1006.03 1359.14 1007.59 1365.95 1012.84 1368.83L1021.83 1373.77C1028.33 1377.33 1032.32 1384.19 1032.21 1391.6L1031.14 1463.23C1031.1 1465.56 1031.47 1467.88 1032.24 1470.08L1064.52 1563.18L1115.29 1550.86L1116.74 1454.04C1116.78 1451.2 1116.22 1448.37 1115.08 1445.76L1083.31 1372.84C1081.02 1367.58 1081.1 1361.6 1083.52 1356.4L1087.65 1347.54C1089.8 1342.94 1088.15 1337.45 1083.81 1334.79L1077.8 1331.11C1071.78 1327.42 1068.15 1320.82 1068.26 1313.76L1069.39 1238.44C1069.43 1235.82 1068.95 1233.22 1067.99 1230.79Z" fill="#905643"/>
<path d="M914.057 1229.27L948.081 1148.62L899.508 1120.63L843.143 1176.44C841.087 1178.48 839.497 1180.93 838.483 1183.64L809.023 1262.4C806.547 1269.02 800.762 1273.84 793.806 1275.08L785.856 1276.5C779.964 1277.56 776.31 1283.51 778.041 1289.24L781.011 1299.07C783.154 1306.16 781.202 1313.85 775.938 1319.06L725.034 1369.47C723.378 1371.11 722.021 1373.02 721.025 1375.13L678.911 1464.22L723.791 1490.96L792.597 1422.83C794.622 1420.82 796.195 1418.41 797.211 1415.75L825.564 1341.44C827.609 1336.08 831.854 1331.85 837.223 1329.84L846.37 1326.41C851.13 1324.62 853.792 1319.55 852.556 1314.61L850.843 1307.78C849.127 1300.93 851.152 1293.68 856.172 1288.71L909.702 1235.7C911.56 1233.86 913.04 1231.68 914.057 1229.27Z" fill="#905643"/>
<path d="M791.494 1110.32L873.419 1079.5L860.293 1025L781.012 1022.52C778.12 1022.43 775.242 1022.96 772.578 1024.09L695.165 1056.93C688.659 1059.69 681.18 1058.81 675.491 1054.62L668.99 1049.83C664.172 1046.28 657.335 1047.72 654.371 1052.92L649.288 1061.84C645.618 1068.27 638.692 1072.15 631.288 1071.92L559.688 1069.68C557.358 1069.61 555.033 1069.95 552.819 1070.67L459.202 1101.44L470.695 1152.4L567.475 1155.42C570.324 1155.51 573.158 1154.99 575.789 1153.9L649.214 1123.32C654.508 1121.12 660.493 1121.29 665.65 1123.8L674.435 1128.07C679.008 1130.3 684.521 1128.74 687.248 1124.44L691.029 1118.5C694.818 1112.54 701.472 1109.02 708.533 1109.24L783.826 1111.59C786.44 1111.67 789.046 1111.24 791.494 1110.32Z" fill="#905643"/>
<path d="M784.672 938.236L865.082 972.82L893.407 924.443L837.992 867.692C835.971 865.621 833.523 864.014 830.82 862.981L752.268 832.973C745.667 830.452 740.887 824.634 739.693 817.669L738.329 809.709C737.318 803.81 731.387 800.114 725.646 801.806L715.802 804.707C708.696 806.801 701.014 804.796 695.839 799.495L645.792 748.242C644.164 746.574 642.256 745.204 640.156 744.193L551.362 701.46L524.314 746.152L591.961 815.431C593.952 817.47 596.356 819.06 599.011 820.094L673.123 848.964C678.466 851.046 682.659 855.321 684.637 860.704L688.005 869.874C689.759 874.646 694.814 877.344 699.755 876.142L706.602 874.477C713.466 872.808 720.702 874.884 725.637 879.938L778.265 933.836C780.093 935.707 782.269 937.202 784.672 938.236Z" fill="#905643"/>
</svg>
